<svg width="21" height="20" viewBox="0 0 21 20" fill="none" xmlns="http://www.w3.org/2000/svg">
<path d="M10.4998 18.3332C15.1022 18.3332 18.8332 14.6022 18.8332 9.99984C18.8332 5.39746 15.1022 1.6665 10.4998 1.6665C5.89746 1.6665 2.1665 5.39746 2.1665 9.99984C2.1665 14.6022 5.89746 18.3332 10.4998 18.3332Z" fill="#5BA85A"/>
<path d="M6.74984 9.99984L9.24984 12.4998L14.2498 7.49984M18.8332 9.99984C18.8332 14.6022 15.1022 18.3332 10.4998 18.3332C5.89746 18.3332 2.1665 14.6022 2.1665 9.99984C2.1665 5.39746 5.89746 1.6665 10.4998 1.6665C15.1022 1.6665 18.8332 5.39746 18.8332 9.99984Z" stroke="white" stroke-linecap="round" stroke-linejoin="round"/>
</svg>
