<svg width="24" height="25" viewBox="0 0 24 25" fill="none" xmlns="http://www.w3.org/2000/svg">
<path d="M6.825 11.15L3.825 5.975C5.7 3.575 8.7 2 12 2C15.825 2 19.2 4.1 21 7.175H12C9.525 7.1 7.425 8.825 6.825 11.15ZM15.75 8.675H21.75C22.2 9.875 22.5 11.15 22.5 12.5C22.5 18.275 17.85 22.925 12.15 23L16.425 15.575C17.025 14.675 17.4 13.625 17.4 12.5C17.4 11 16.725 9.65 15.75 8.675ZM8.175 12.5C8.175 10.4 9.9 8.675 12 8.675C14.1 8.675 15.825 10.4 15.825 12.5C15.825 14.6 14.1 16.325 12 16.325C9.9 16.325 8.175 14.6 8.175 12.5ZM13.425 17.675L10.425 22.85C5.4 22.1 1.5 17.75 1.5 12.5C1.5 10.625 2.025 8.9 2.85 7.325L7.125 14.75C7.95 16.55 9.825 17.825 12 17.825C12.525 17.9 12.975 17.825 13.425 17.675Z" fill="#14171A"/>
</svg>
