<svg width="20" height="20" viewBox="0 0 20 20" fill="none" xmlns="http://www.w3.org/2000/svg">
<path d="M9.99984 4.99984V18.3332M9.99984 4.99984H7.05341C6.61927 4.99984 6.20292 4.82424 5.89594 4.51168C5.58896 4.19912 5.4165 3.7752 5.4165 3.33317C5.4165 2.89114 5.58896 2.46722 5.89594 2.15466C6.20292 1.8421 6.61927 1.6665 7.05341 1.6665C9.34508 1.6665 9.99984 4.99984 9.99984 4.99984ZM9.99984 4.99984H12.9463C13.3804 4.99984 13.7968 4.82424 14.1037 4.51168C14.4107 4.19912 14.5832 3.7752 14.5832 3.33317C14.5832 2.89114 14.4107 2.46722 14.1037 2.15466C13.7968 1.8421 13.3804 1.6665 12.9463 1.6665C10.6546 1.6665 9.99984 4.99984 9.99984 4.99984ZM16.6665 9.1665V15.6665C16.6665 16.5999 16.6665 17.0666 16.4848 17.4232C16.3251 17.7368 16.0701 17.9917 15.7565 18.1515C15.4 18.3332 14.9333 18.3332 13.9998 18.3332L5.99984 18.3332C5.06642 18.3332 4.59971 18.3332 4.24319 18.1515C3.92958 17.9917 3.67462 17.7368 3.51483 17.4232C3.33317 17.0666 3.33317 16.5999 3.33317 15.6665V9.1665M1.6665 6.33317L1.6665 7.83317C1.6665 8.29988 1.6665 8.53324 1.75733 8.7115C1.83723 8.8683 1.96471 8.99578 2.12151 9.07568C2.29977 9.1665 2.53313 9.1665 2.99984 9.1665L16.9998 9.1665C17.4665 9.1665 17.6999 9.1665 17.8782 9.07568C18.035 8.99578 18.1624 8.8683 18.2423 8.7115C18.3332 8.53324 18.3332 8.29988 18.3332 7.83317V6.33317C18.3332 5.86646 18.3332 5.63311 18.2423 5.45485C18.1624 5.29804 18.035 5.17056 17.8782 5.09067C17.6999 4.99984 17.4665 4.99984 16.9998 4.99984L2.99984 4.99984C2.53313 4.99984 2.29977 4.99984 2.12151 5.09067C1.96471 5.17056 1.83723 5.29804 1.75733 5.45485C1.6665 5.63311 1.6665 5.86646 1.6665 6.33317Z" stroke="#718096" stroke-linecap="round" stroke-linejoin="round"/>
</svg>
