<svg width="16" height="14" viewBox="0 0 16 14" fill="none" xmlns="http://www.w3.org/2000/svg">
<path d="M6.00017 13.5V8.56667C6.00017 8.1933 6.00017 8.00661 6.07283 7.86401C6.13674 7.73857 6.23873 7.63658 6.36417 7.57266C6.50678 7.5 6.69346 7.5 7.06683 7.5H8.9335C9.30687 7.5 9.49355 7.5 9.63616 7.57266C9.7616 7.63658 9.86359 7.73857 9.9275 7.86401C10.0002 8.00661 10.0002 8.1933 10.0002 8.56667V13.5M1.3335 5.83333L7.36017 1.31333C7.58967 1.1412 7.70442 1.05514 7.83045 1.02196C7.9417 0.992679 8.05863 0.992679 8.16988 1.02196C8.29591 1.05514 8.41066 1.1412 8.64017 1.31333L14.6668 5.83333M2.66683 4.83333V11.3667C2.66683 12.1134 2.66683 12.4868 2.81216 12.772C2.93999 13.0229 3.14396 13.2268 3.39484 13.3547C3.68006 13.5 4.05343 13.5 4.80017 13.5H11.2002C11.9469 13.5 12.3203 13.5 12.6055 13.3547C12.8564 13.2268 13.0603 13.0229 13.1882 12.772C13.3335 12.4868 13.3335 12.1134 13.3335 11.3667V4.83333L9.28017 1.79333C8.82115 1.44907 8.59165 1.27695 8.33959 1.21059C8.1171 1.15202 7.88323 1.15202 7.66074 1.21059C7.40868 1.27695 7.17918 1.44907 6.72017 1.79333L2.66683 4.83333Z" stroke="#748094" stroke-linecap="round" stroke-linejoin="round"/>
</svg>
