<svg width="27" height="27" fill="none" xmlns="http://www.w3.org/2000/svg">
    <g>
        <path
            d="M46.723 8.286c0 4.254-3.08 7.45-7.18 7.45h-5.548V.836h5.548c4.1 0 7.18 3.196 7.18 7.45m-3.243 0c0-2.44-1.714-4.298-4.019-4.298h-2.305v8.594h2.305c2.305 0 4.02-1.856 4.02-4.297ZM58.707 5.362v10.374H55.73v-1.14a4.16 4.16 0 0 1-3.142 1.383c-2.856 0-5.018-2.338-5.018-5.43 0-3.093 2.162-5.431 5.018-5.431 1.285 0 2.366.529 3.142 1.383V5.362h2.978ZM55.73 10.55c0-1.465-1.081-2.563-2.55-2.563-1.469 0-2.53 1.098-2.53 2.563 0 1.464 1.082 2.562 2.53 2.562 1.448 0 2.55-1.098 2.55-2.563ZM71.303 5.362 65.489 19.6h-3.182l1.632-4.006-4.162-10.23h3.407l2.407 6.59 2.386-6.59h3.326ZM75.549.836H72.57v14.899h2.978V.835ZM77.255 1.81C77.255.772 78.05 0 79.09 0c1.04 0 1.856.773 1.856 1.81s-.795 1.83-1.856 1.83c-1.06 0-1.836-.773-1.836-1.83Zm.347 3.552h2.978v10.373h-2.978V5.362ZM93.204 5.362v9.255c0 3.152-2.142 5.227-5.365 5.227-2.734 0-4.671-1.486-5.263-3.865h3.06c.326.712 1.162 1.16 2.203 1.16 1.448 0 2.386-1.017 2.386-2.543v-.326c-.775.855-1.856 1.363-3.142 1.363-2.876 0-5.018-2.278-5.018-5.268 0-2.989 2.142-5.247 5.018-5.247 1.285 0 2.367.508 3.142 1.362V5.361h2.978l.001.001Zm-2.978 5.003c0-1.444-1.081-2.562-2.55-2.562-1.469 0-2.55 1.119-2.55 2.562 0 1.444 1.081 2.563 2.55 2.563 1.469 0 2.55-1.098 2.55-2.563ZM105.097 9.064v6.672h-2.978V10.06c0-1.261-.795-2.074-1.999-2.074-1.285 0-2.161.834-2.161 2.115v5.634H94.98V.836h2.978v5.746c.795-.955 1.876-1.464 3.161-1.464 2.387 0 3.978 1.566 3.978 3.945M113.95 8.067h-2.421v7.668h-2.978V8.067h-2.298V5.362h2.298v-3.05h2.978v3.05h2.421v2.705Z"
            fill="currentColor"></path>
        <path d="M13.49.836C6.052.836 0 6.87 0 14.286v1.449H26.981v-1.449c0-7.417-6.052-13.45-13.49-13.45Z"
            fill="#FF9B00"></path>
        <path
            d="M13.49.836C6.052.836 0 6.87 0 14.286v1.449h3.602v-1.449c0-5.436 4.436-9.86 9.888-9.86 5.453 0 9.889 4.424 9.889 9.86v1.449h3.602v-1.449c0-7.417-6.052-13.45-13.49-13.45Z"
            fill="#F76734"></path>
        <path
            d="M13.49 4.427c-5.453 0-9.89 4.424-9.89 9.86v1.449h3.602v-1.449c0-3.456 2.82-6.27 6.288-6.27 3.468 0 6.288 2.813 6.288 6.27v1.449h3.602v-1.449c0-5.436-4.437-9.86-9.89-9.86Z"
            fill="#F98C32"></path>
        <path
            d="M13.49 8.017c-3.467 0-6.288 2.813-6.288 6.27v1.449h3.601v-1.449a2.686 2.686 0 0 1 5.372 0v1.449h3.602v-1.449c0-3.457-2.82-6.27-6.289-6.27h.003Z"
            fill="#FCAA32"></path>
        <path d="M10.804 15.736v-1.449a2.686 2.686 0 0 1 5.372 0v1.449h-5.373.001Z" fill="#F9C432"></path>
    </g>
</svg>