<svg width="24" height="24" viewBox="0 0 24 24" fill="none" xmlns="http://www.w3.org/2000/svg">
<path d="M12.5867 9.37756C12.7459 9.37078 12.8517 9.36624 12.9041 9.36387C14.2834 9.30176 15.3324 9.22695 16.0511 9.13948C16.1054 9.13287 16.1717 9.12413 16.2499 9.11323C16.2966 9.10673 16.3439 9.11993 16.3814 9.14994C16.4189 9.17995 16.4436 9.22434 16.4501 9.2734C16.4689 9.41576 16.483 9.5292 16.4926 9.61372C16.5771 10.3628 16.6194 11.1548 16.6194 11.9902C16.6194 12.761 16.5834 13.4949 16.5114 14.1922C16.5064 14.2407 16.4996 14.3028 16.4909 14.3785C16.4881 14.4032 16.4806 14.427 16.469 14.4485C16.4573 14.4701 16.4417 14.4891 16.4231 14.5043C16.4044 14.5195 16.3831 14.5306 16.3603 14.5371C16.3375 14.5436 16.3137 14.5452 16.2902 14.542C16.2478 14.5361 16.2118 14.5312 16.1824 14.5273C15.1674 14.3928 14.0282 14.3139 12.764 14.2895C12.7196 14.2887 12.6621 14.2877 12.5914 14.2867C12.5445 14.286 12.4997 14.2659 12.4668 14.2308C12.4339 14.1957 12.4154 14.1484 12.4154 14.0992V13.8712V10.0117V9.56489C12.4154 9.51648 12.4332 9.46994 12.4652 9.43502C12.4971 9.40011 12.5407 9.37951 12.5867 9.37756ZM7.27497 14.3809C7.26515 14.2951 7.25745 14.2252 7.25194 14.1712C7.18139 13.4802 7.14614 12.7533 7.14614 11.9902C7.14614 11.1226 7.19172 10.3018 7.28291 9.52723C7.29065 9.46161 7.30165 9.37526 7.31593 9.26815C7.31919 9.24374 7.32699 9.22024 7.3389 9.199C7.3508 9.17776 7.36658 9.1592 7.38533 9.14437C7.40407 9.12954 7.42542 9.11874 7.44814 9.11258C7.47086 9.10643 7.49452 9.10504 7.51775 9.1085C7.5909 9.11947 7.66411 9.13004 7.73737 9.14021C8.69824 9.27202 9.77227 9.35068 10.9601 9.37742C11.0128 9.37859 11.0823 9.37993 11.1688 9.3814C11.2156 9.3822 11.2603 9.4023 11.2931 9.43737C11.326 9.47244 11.3444 9.51967 11.3444 9.56888V14.0995C11.3444 14.1487 11.326 14.196 11.293 14.2311C11.2601 14.2662 11.2154 14.2863 11.1685 14.287C11.1096 14.2879 11.061 14.2887 11.023 14.2894C9.76913 14.3135 8.63817 14.3911 7.62934 14.5234C7.5781 14.5302 7.52688 14.5372 7.47569 14.5444C7.45227 14.5476 7.42847 14.546 7.40566 14.5395C7.38285 14.533 7.3615 14.5219 7.34282 14.5067C7.32415 14.4915 7.30854 14.4725 7.29689 14.4509C7.28524 14.4293 7.27779 14.4055 7.27497 14.3809ZM11.3444 2.06647V8.05416C11.3444 8.07904 11.3397 8.10368 11.3305 8.12663C11.3214 8.14958 11.308 8.17038 11.2911 8.18783C11.2742 8.20528 11.2542 8.21903 11.2322 8.22826C11.2102 8.2375 11.1867 8.24205 11.163 8.24164L11.1189 8.24084C9.90606 8.21764 8.82209 8.13973 7.86786 8.0085C7.8326 8.00365 7.78927 7.99749 7.73784 7.98999C7.71312 7.98638 7.6894 7.97736 7.66821 7.96353C7.64701 7.94969 7.62881 7.93134 7.61479 7.90966C7.60076 7.88798 7.59122 7.86345 7.58678 7.83765C7.58233 7.81186 7.58309 7.78537 7.58899 7.7599C7.59801 7.72095 7.60584 7.68781 7.61244 7.66046C8.19933 5.23378 9.34046 3.36474 11.0375 2.03391C11.0653 2.01211 11.0992 1.9861 11.1392 1.95591C11.1586 1.9413 11.1814 1.93258 11.2052 1.93071C11.2289 1.92885 11.2527 1.93391 11.274 1.94534C11.2952 1.95676 11.313 1.97412 11.3254 1.99549C11.3378 2.01686 11.3444 2.04142 11.3444 2.06647ZM12.4154 2.05571C12.4154 2.03131 12.4218 2.00739 12.4339 1.98657C12.446 1.96575 12.4634 1.94884 12.484 1.9377C12.5047 1.92655 12.5279 1.92161 12.551 1.92342C12.5742 1.92522 12.5964 1.9337 12.6153 1.94792C12.6647 1.98496 12.7136 2.02259 12.7622 2.06082C14.4051 3.36195 15.5224 5.17207 16.1155 7.50907C16.1318 7.57318 16.1524 7.65865 16.1773 7.7655C16.1832 7.79101 16.184 7.81755 16.1796 7.8434C16.1751 7.86924 16.1656 7.89382 16.1515 7.91554C16.1374 7.93725 16.1192 7.95562 16.0979 7.96946C16.0767 7.98329 16.0529 7.99228 16.0281 7.99585C15.9762 8.00332 15.9325 8.00944 15.8969 8.01427C15.0033 8.13521 13.997 8.20974 12.8784 8.23671C12.8092 8.23838 12.7153 8.24023 12.5968 8.2422C12.5731 8.2426 12.5496 8.23804 12.5276 8.2288C12.5056 8.21956 12.4856 8.20582 12.4687 8.18837C12.4518 8.17092 12.4384 8.15013 12.4293 8.12718C12.4201 8.10424 12.4154 8.07962 12.4154 8.05475V7.79893V2.05568V2.05571ZM7.66557 15.6537C7.7749 15.6388 7.86346 15.6271 7.93131 15.6188C8.85023 15.5056 9.88241 15.4372 11.0271 15.4146C11.063 15.4139 11.1084 15.4131 11.1632 15.4123C11.1869 15.4119 11.2104 15.4165 11.2323 15.4257C11.2543 15.435 11.2743 15.4487 11.2912 15.4662C11.308 15.4836 11.3214 15.5044 11.3306 15.5273C11.3397 15.5503 11.3444 15.5749 11.3444 15.5997V21.8121C11.3444 21.8467 11.3353 21.8807 11.318 21.9102C11.3008 21.9397 11.2761 21.9637 11.2467 21.9793C11.2172 21.995 11.1843 22.0018 11.1514 21.999C11.1185 21.9962 11.087 21.9838 11.0604 21.9634C11.0162 21.9294 10.9723 21.8949 10.9288 21.8599C9.2594 20.509 8.14342 18.6218 7.57915 16.1791C7.56211 16.1054 7.54046 16.0056 7.51418 15.8798C7.50888 15.8544 7.50866 15.8281 7.51354 15.8026C7.51842 15.7771 7.52829 15.753 7.54252 15.7317C7.55676 15.7104 7.57505 15.6925 7.59623 15.6791C7.61742 15.6656 7.64103 15.657 7.66557 15.6536V15.6537ZM16.252 15.8774C16.2344 15.9626 16.2161 16.0477 16.197 16.1325C15.6417 18.5739 14.5383 20.4635 12.8854 21.8203C12.8363 21.8606 12.7743 21.9095 12.6993 21.9671C12.6727 21.9876 12.6413 21.9999 12.6084 22.0027C12.5755 22.0055 12.5426 21.9987 12.5132 21.983C12.4838 21.9674 12.4591 21.9435 12.4418 21.9139C12.4245 21.8844 12.4154 21.8505 12.4154 21.8158V21.7383V15.8524V15.5995C12.4154 15.5746 12.4201 15.55 12.4293 15.5271C12.4384 15.5042 12.4518 15.4834 12.4687 15.4659C12.4855 15.4485 12.5055 15.4347 12.5275 15.4255C12.5495 15.4162 12.573 15.4116 12.5966 15.412C12.7168 15.4139 12.8119 15.4157 12.882 15.4173C13.9758 15.4423 14.9653 15.5097 15.8499 15.6186C15.9142 15.6265 15.9977 15.6374 16.1005 15.6514C16.125 15.6547 16.1486 15.6634 16.1698 15.6768C16.191 15.6902 16.2093 15.7081 16.2235 15.7294C16.2378 15.7506 16.2477 15.7748 16.2526 15.8002C16.2575 15.8257 16.2573 15.852 16.252 15.8774L16.252 15.8774ZM17.6904 11.9902C17.6904 11.1315 17.6476 10.312 17.5621 9.53206C17.5496 9.41829 17.5302 9.26164 17.5038 9.06214C17.4976 9.01547 17.5084 8.96808 17.5339 8.92939C17.5595 8.89069 17.598 8.86353 17.6418 8.85331C17.6967 8.84057 17.7515 8.82748 17.8062 8.81403C18.9811 8.52277 19.921 8.11906 20.6282 7.59914L20.7019 7.54498C20.7233 7.52925 20.7478 7.51864 20.7735 7.51391C20.7992 7.50917 20.8256 7.51043 20.8508 7.51758C20.876 7.52473 20.8995 7.53761 20.9194 7.5553C20.9394 7.573 20.9554 7.59507 20.9663 7.61998C21.0072 7.71296 21.0397 7.78878 21.0638 7.84744C21.5864 9.12104 21.8759 10.525 21.8759 12C21.8759 13.342 21.6362 14.6253 21.1993 15.8051C21.1771 15.8647 21.1543 15.9241 21.1309 15.9832C21.1208 16.0088 21.1054 16.0318 21.0858 16.0504C21.0662 16.0691 21.043 16.0829 21.0177 16.091C20.9924 16.099 20.9657 16.1011 20.9396 16.097C20.9135 16.0929 20.8885 16.0828 20.8666 16.0673L20.8141 16.0304C20.0766 15.5116 19.091 15.1111 17.8547 14.825C17.8122 14.8152 17.7565 14.8028 17.6875 14.7877C17.6436 14.7781 17.6048 14.7516 17.5787 14.7134C17.5526 14.6751 17.5412 14.628 17.5466 14.5813C17.5561 14.5013 17.5651 14.4212 17.5735 14.341C17.6514 13.5934 17.6904 12.8097 17.6904 11.9902ZM15.045 2.03726C17.0808 2.75054 18.8251 4.13304 20.0416 5.93625C20.0942 6.01425 20.1642 6.12314 20.2516 6.2629C20.2771 6.30367 20.2865 6.35326 20.2777 6.40117C20.269 6.44907 20.2428 6.49151 20.2048 6.51947L20.0062 6.66549C19.4415 7.08057 18.6704 7.4165 17.6944 7.6703C17.6357 7.68556 17.556 7.7052 17.4553 7.72918C17.4094 7.74012 17.3612 7.73153 17.3212 7.70529C17.2813 7.67905 17.2528 7.63728 17.2421 7.58909C17.2322 7.54464 17.2221 7.50025 17.2118 7.45592C16.6983 5.26146 15.7719 3.45279 14.4334 2.04045C14.4188 2.02504 14.4095 2.005 14.4068 1.98344C14.4042 1.96188 14.4084 1.94001 14.4188 1.92123C14.4292 1.90244 14.4453 1.8878 14.4644 1.87957C14.4836 1.87133 14.5048 1.86998 14.5247 1.87571C14.7438 1.93861 14.9172 1.99247 15.045 2.03726ZM17.5268 15.9025C17.6032 15.9194 17.6795 15.9369 17.7557 15.9552C18.794 16.2067 19.6117 16.5433 20.2068 16.9619L20.4199 17.1118C20.4579 17.1385 20.4847 17.1796 20.4947 17.2264C20.5048 17.2733 20.4973 17.3224 20.4739 17.3637C20.4074 17.4807 20.3538 17.5727 20.3131 17.6397C19.0839 19.6635 17.2127 21.2152 15.0008 21.9781C14.9147 22.0078 14.8076 22.0416 14.6794 22.0796C14.649 22.0886 14.6166 22.0868 14.5872 22.0746C14.5578 22.0623 14.5331 22.0402 14.5169 22.0117C14.5007 21.9832 14.4938 21.9499 14.4975 21.9169C14.5011 21.8839 14.5149 21.8531 14.5369 21.8292C15.8583 20.3915 16.765 18.555 17.2559 16.3305C17.2713 16.2607 17.291 16.1662 17.3151 16.047C17.3249 15.9983 17.3528 15.9558 17.3924 15.9287C17.4321 15.9016 17.4805 15.8922 17.5268 15.9025H17.5268ZM2.96832 16.0304L2.8977 16.0801C2.87578 16.0955 2.85087 16.1056 2.82477 16.1097C2.79867 16.1138 2.77204 16.1118 2.74678 16.1038C2.72152 16.0958 2.69826 16.082 2.67868 16.0634C2.65911 16.0448 2.6437 16.0219 2.63357 15.9963C2.6242 15.9727 2.61494 15.949 2.60581 15.9252C2.14021 14.7126 1.88391 13.3877 1.88391 12C1.88391 10.5298 2.17156 9.1302 2.69095 7.85989C2.71869 7.79206 2.75682 7.70328 2.80533 7.59352C2.81631 7.56867 2.83235 7.54665 2.85231 7.52901C2.87228 7.51137 2.89568 7.49854 2.92087 7.49142C2.94606 7.4843 2.97243 7.48307 2.99812 7.48782C3.02381 7.49256 3.0482 7.50316 3.06958 7.51887L3.17875 7.59912C3.86499 8.10361 4.77039 8.49872 5.89693 8.7878C5.95315 8.80221 6.02924 8.82085 6.12527 8.84365C6.16899 8.85404 6.20739 8.88132 6.23284 8.92008C6.25829 8.95884 6.26892 9.00624 6.26263 9.05286C6.24922 9.15103 6.23654 9.2493 6.22456 9.34768C6.12496 10.1825 6.07514 11.0635 6.07514 11.9902C6.07514 12.8263 6.1157 13.6253 6.19678 14.3867C6.20392 14.4527 6.2114 14.5188 6.21923 14.5848C6.22471 14.6314 6.21329 14.6786 6.18722 14.7169C6.16115 14.7551 6.12235 14.7817 6.07851 14.7913C6.01715 14.8047 5.96723 14.8159 5.92877 14.8248C4.69198 15.1109 3.70599 15.5115 2.96834 16.0304L2.96832 16.0304ZM9.36085 2.01024C7.99321 3.44129 7.052 5.28261 6.53819 7.52309C6.53444 7.5395 6.53016 7.55848 6.52531 7.58004C6.51453 7.62826 6.48603 7.67003 6.44603 7.69625C6.40602 7.72246 6.35777 7.73099 6.3118 7.71996C6.26917 7.70979 6.2266 7.69935 6.18409 7.68865C5.17422 7.43278 4.37921 7.09067 3.80082 6.66549L3.56929 6.49526C3.53127 6.46731 3.50511 6.42491 3.49635 6.37705C3.48759 6.32918 3.49692 6.27962 3.52236 6.23886C3.55879 6.18023 3.59579 6.12199 3.63335 6.06415C4.8658 4.17854 6.66918 2.73685 8.78158 2.01415C8.90342 1.97243 9.06947 1.92188 9.27968 1.86242C9.29757 1.85735 9.31656 1.85864 9.33368 1.86608C9.3508 1.87352 9.36511 1.88669 9.37436 1.90355C9.38362 1.92041 9.38732 1.94001 9.38487 1.95931C9.38243 1.9786 9.37399 1.99651 9.36085 2.01024ZM3.34598 17.1234L3.57562 16.9619C4.16909 16.5444 4.98403 16.2085 6.01846 15.9571C6.09192 15.9395 6.16551 15.9225 6.23922 15.9061C6.26216 15.901 6.28585 15.9006 6.30892 15.9051C6.33199 15.9096 6.35399 15.9188 6.37367 15.9322C6.39334 15.9456 6.41031 15.963 6.4236 15.9833C6.43689 16.0036 6.44623 16.0265 6.4511 16.0506C6.47341 16.161 6.49173 16.249 6.5061 16.3144C6.99401 18.5363 7.89604 20.3718 9.21127 21.8102L9.21611 21.8155C9.23924 21.8407 9.25378 21.8732 9.25748 21.908C9.26118 21.9428 9.25383 21.9779 9.23657 22.0078C9.21931 22.0377 9.19312 22.0608 9.16206 22.0735C9.131 22.0862 9.09683 22.0877 9.06485 22.0779C6.68764 21.3464 4.67766 19.712 3.39418 17.5522C3.35953 17.4936 3.32545 17.4345 3.29194 17.3751C3.26856 17.3339 3.26113 17.2848 3.27118 17.2379C3.28124 17.1911 3.30801 17.1501 3.34598 17.1234V17.1234Z" fill="black"/>
</svg>
