<svg width="156" height="40" viewBox="0 0 156 40" fill="none" xmlns="http://www.w3.org/2000/svg">
<path d="M0 5.88235C0 2.63362 2.58693 0 5.77807 0H37.2108V2.35294H5.77807C3.86338 2.35294 2.31123 3.93311 2.31123 5.88235V34.1176C2.31123 36.0669 3.86338 37.6471 5.77807 37.6471H34.4373C36.352 37.6471 37.9041 36.0669 37.9041 34.1176V24.2353H40.2154V34.1176C40.2154 37.3664 37.6284 40 34.4373 40H5.77807C2.58693 40 0 37.3664 0 34.1176V5.88235Z" fill="url(#paint0_linear_468_5480)"/>
<path d="M14.5607 7.29412V22.3529C14.5607 25.4717 17.0442 28 20.1077 28C23.1712 28 25.6546 25.4717 25.6546 22.3529V7.29412H31.2016V22.3529C31.2016 28.5905 26.2347 33.6471 20.1077 33.6471C13.9807 33.6471 9.01379 28.5905 9.01379 22.3529V7.29412H14.5607Z" fill="url(#paint1_linear_468_5480)"/>
<path d="M37.0259 19.8682C37.6545 20.0816 38.4003 20.1882 39.2631 20.1882C40.2493 20.1882 41.1244 20.0251 41.8887 19.6988C42.6529 19.3725 43.2508 18.9082 43.6822 18.3059C44.1259 17.691 44.3478 16.9569 44.3478 16.1035C44.3478 15.2878 44.1814 14.6102 43.8486 14.0706C43.5281 13.531 43.072 13.1231 42.4804 12.8471C41.901 12.5584 41.2354 12.3827 40.4835 12.32L40.2616 12.3012L43.4603 8.95059C43.522 8.88784 43.5774 8.81255 43.6267 8.72471C43.676 8.63686 43.7007 8.53647 43.7007 8.42353V7.29412C43.7007 7.15608 43.6575 7.04314 43.5713 6.95529C43.485 6.86745 43.374 6.82353 43.2384 6.82353H35.3063C35.1707 6.82353 35.0598 6.86745 34.9735 6.95529C34.8995 7.04314 34.8625 7.15608 34.8625 7.29412V8.53647C34.8625 8.66196 34.8995 8.76863 34.9735 8.85647C35.0598 8.94431 35.1707 8.98823 35.3063 8.98823H40.5944L37.2847 12.2824C37.2231 12.3451 37.1615 12.4267 37.0998 12.5271C37.0505 12.6149 37.0259 12.7216 37.0259 12.8471V13.6376C37.0259 13.7757 37.069 13.8886 37.1553 13.9765C37.2416 14.0518 37.3525 14.0894 37.4881 14.0894H39.3926C40.1198 14.0894 40.6868 14.24 41.0936 14.5412C41.5004 14.8298 41.7038 15.3067 41.7038 15.9718C41.7038 16.6369 41.4819 17.1514 41.0382 17.5153C40.6067 17.8667 40.0212 18.0424 39.2816 18.0424C38.9118 18.0424 38.5605 18.0047 38.2277 17.9294C37.8949 17.8416 37.599 17.6973 37.3402 17.4965C37.0937 17.2957 36.9149 17.0259 36.804 16.6871C36.7423 16.5365 36.6684 16.4361 36.5821 16.3859C36.4958 16.3357 36.391 16.3106 36.2678 16.3106H34.6037C34.4928 16.3106 34.3941 16.3482 34.3079 16.4235C34.2339 16.4863 34.1969 16.5741 34.1969 16.6871C34.2092 17.0886 34.3202 17.4965 34.5297 17.9106C34.7393 18.3122 35.0474 18.6886 35.4542 19.04C35.8733 19.3788 36.3972 19.6549 37.0259 19.8682Z" fill="url(#paint2_linear_468_5480)"/>
<path d="M64.6358 31.32C63.3344 31.32 62.2038 31.032 61.2438 30.456C60.3051 29.8587 59.5798 29.0267 59.0678 27.96C58.5558 26.872 58.2998 25.592 58.2998 24.12V15.128C58.2998 14.9147 58.3744 14.7333 58.5238 14.584C58.6731 14.4347 58.8544 14.36 59.0678 14.36H61.8838C62.1184 14.36 62.2998 14.4347 62.4278 14.584C62.5771 14.7333 62.6518 14.9147 62.6518 15.128V23.928C62.6518 26.5733 63.8144 27.896 66.1398 27.896C67.2491 27.896 68.1238 27.544 68.7638 26.84C69.4251 26.136 69.7558 25.1653 69.7558 23.928V15.128C69.7558 14.9147 69.8304 14.7333 69.9798 14.584C70.1291 14.4347 70.3104 14.36 70.5238 14.36H73.3398C73.5531 14.36 73.7344 14.4347 73.8838 14.584C74.0331 14.7333 74.1078 14.9147 74.1078 15.128V30.232C74.1078 30.4453 74.0331 30.6267 73.8838 30.776C73.7344 30.9253 73.5531 31 73.3398 31H70.7478C70.5131 31 70.3211 30.9253 70.1718 30.776C70.0438 30.6267 69.9798 30.4453 69.9798 30.232V28.92C69.4038 29.6667 68.6891 30.2533 67.8358 30.68C66.9824 31.1067 65.9158 31.32 64.6358 31.32Z" fill="white"/>
<path d="M83.8118 31.24C82.6918 31.24 81.7238 31.104 80.9078 30.832C80.0918 30.56 79.4118 30.208 78.8678 29.776C78.3398 29.328 77.9398 28.848 77.6678 28.336C77.3958 27.808 77.2518 27.288 77.2358 26.776C77.2358 26.632 77.2838 26.52 77.3798 26.44C77.4918 26.344 77.6198 26.296 77.7638 26.296H79.9238C80.0838 26.296 80.2198 26.328 80.3318 26.392C80.4438 26.456 80.5398 26.584 80.6198 26.776C80.7638 27.208 80.9958 27.552 81.3158 27.808C81.6518 28.064 82.0358 28.248 82.4678 28.36C82.8998 28.456 83.3558 28.504 83.8358 28.504C84.7958 28.504 85.5558 28.28 86.1158 27.832C86.6918 27.368 86.9798 26.712 86.9798 25.864C86.9798 25.016 86.7158 24.408 86.1878 24.04C85.6598 23.656 84.9238 23.464 83.9798 23.464H81.5078C81.3318 23.464 81.1878 23.416 81.0758 23.32C80.9638 23.208 80.9078 23.064 80.9078 22.888V21.88C80.9078 21.72 80.9398 21.584 81.0038 21.472C81.0838 21.344 81.1638 21.24 81.2438 21.16L85.5398 16.96H78.6758C78.4998 16.96 78.3558 16.904 78.2438 16.792C78.1478 16.68 78.0998 16.544 78.0998 16.384V14.8C78.0998 14.624 78.1478 14.48 78.2438 14.368C78.3558 14.256 78.4998 14.2 78.6758 14.2H88.9718C89.1478 14.2 89.2918 14.256 89.4038 14.368C89.5158 14.48 89.5718 14.624 89.5718 14.8V16.24C89.5718 16.384 89.5398 16.512 89.4758 16.624C89.4118 16.736 89.3398 16.832 89.2598 16.912L85.1078 21.184L85.3958 21.208C86.3718 21.288 87.2358 21.512 87.9878 21.88C88.7558 22.232 89.3478 22.752 89.7638 23.44C90.1958 24.128 90.4118 24.992 90.4118 26.032C90.4118 27.12 90.1238 28.056 89.5478 28.84C88.9878 29.608 88.2118 30.2 87.2198 30.616C86.2278 31.032 85.0918 31.24 83.8118 31.24Z" fill="white"/>
<path d="M96.0358 31C95.8224 31 95.6411 30.9253 95.4918 30.776C95.3424 30.6267 95.2678 30.4453 95.2678 30.232V27.064C95.2678 26.8293 95.3424 26.6373 95.4918 26.488C95.6411 26.3387 95.8224 26.264 96.0358 26.264H99.2358C99.4491 26.264 99.6304 26.3387 99.7798 26.488C99.9291 26.6373 100.004 26.8293 100.004 27.064V30.232C100.004 30.4453 99.9291 30.6267 99.7798 30.776C99.6304 30.9253 99.4491 31 99.2358 31H96.0358ZM103.318 31C103.126 31 102.956 30.936 102.806 30.808C102.678 30.6587 102.614 30.488 102.614 30.296C102.614 30.232 102.625 30.1573 102.646 30.072C102.689 29.9867 102.753 29.88 102.838 29.752L108.278 22.456L103.222 15.608C103.158 15.5013 103.105 15.4053 103.062 15.32C103.041 15.2347 103.03 15.1493 103.03 15.064C103.03 14.872 103.094 14.712 103.222 14.584C103.372 14.4347 103.542 14.36 103.734 14.36H106.518C106.774 14.36 106.966 14.424 107.094 14.552C107.222 14.68 107.318 14.7973 107.382 14.904L110.998 19.704L114.614 14.904C114.7 14.7973 114.796 14.68 114.902 14.552C115.03 14.424 115.222 14.36 115.478 14.36H118.134C118.326 14.36 118.486 14.4347 118.614 14.584C118.764 14.712 118.838 14.8613 118.838 15.032C118.838 15.1387 118.817 15.2347 118.774 15.32C118.753 15.4053 118.71 15.5013 118.646 15.608L113.526 22.52L118.998 29.752C119.084 29.88 119.137 29.9867 119.158 30.072C119.201 30.1573 119.222 30.232 119.222 30.296C119.222 30.488 119.148 30.6587 118.998 30.808C118.87 30.936 118.71 31 118.518 31H115.606C115.372 31 115.19 30.9467 115.062 30.84C114.934 30.712 114.828 30.5947 114.742 30.488L110.902 25.4L106.998 30.488C106.913 30.5947 106.806 30.712 106.678 30.84C106.572 30.9467 106.39 31 106.134 31H103.318ZM125.093 37.08C124.922 37.08 124.773 37.016 124.645 36.888C124.517 36.76 124.453 36.6107 124.453 36.44C124.453 36.3547 124.453 36.2693 124.453 36.184C124.474 36.12 124.517 36.0347 124.581 35.928L127.077 30.008L120.933 15.512C120.847 15.2987 120.805 15.1493 120.805 15.064C120.826 14.872 120.901 14.712 121.029 14.584C121.157 14.4347 121.317 14.36 121.509 14.36H124.101C124.357 14.36 124.549 14.424 124.677 14.552C124.805 14.68 124.901 14.8187 124.965 14.968L129.221 25.432L133.605 14.968C133.669 14.7973 133.765 14.6587 133.893 14.552C134.021 14.424 134.213 14.36 134.469 14.36H137.029C137.199 14.36 137.349 14.424 137.477 14.552C137.626 14.68 137.701 14.8293 137.701 15C137.701 15.128 137.658 15.2987 137.573 15.512L128.517 36.472C128.431 36.6427 128.325 36.7813 128.197 36.888C128.069 37.016 127.877 37.08 127.621 37.08H125.093ZM140.271 31C140.036 31 139.844 30.9253 139.695 30.776C139.567 30.6267 139.503 30.4453 139.503 30.232V28.408C139.503 28.216 139.545 28.0347 139.631 27.864C139.737 27.672 139.844 27.512 139.951 27.384L148.143 17.688H140.527C140.313 17.688 140.132 17.624 139.983 17.496C139.833 17.3467 139.759 17.1547 139.759 16.92V15.128C139.759 14.9147 139.833 14.7333 139.983 14.584C140.132 14.4347 140.313 14.36 140.527 14.36H152.655C152.889 14.36 153.071 14.4347 153.199 14.584C153.348 14.7333 153.423 14.9147 153.423 15.128V17.08C153.423 17.272 153.38 17.4427 153.295 17.592C153.209 17.7413 153.103 17.9013 152.975 18.072L144.975 27.672H153.327C153.54 27.672 153.721 27.7467 153.871 27.896C154.02 28.024 154.095 28.2053 154.095 28.44V30.232C154.095 30.4453 154.02 30.6267 153.871 30.776C153.721 30.9253 153.54 31 153.327 31H140.271Z" fill="white"/>
<defs>
<linearGradient id="paint0_linear_468_5480" x1="-3.00002" y1="3.99998" x2="21.6739" y2="-17.0481" gradientUnits="userSpaceOnUse">
<stop stop-color="#CD62FF"/>
<stop offset="1" stop-color="#62AAFF"/>
</linearGradient>
<linearGradient id="paint1_linear_468_5480" x1="-3.00002" y1="3.99998" x2="21.6739" y2="-17.0481" gradientUnits="userSpaceOnUse">
<stop stop-color="#CD62FF"/>
<stop offset="1" stop-color="#62AAFF"/>
</linearGradient>
<linearGradient id="paint2_linear_468_5480" x1="-3.00002" y1="3.99998" x2="21.6739" y2="-17.0481" gradientUnits="userSpaceOnUse">
<stop stop-color="#CD62FF"/>
<stop offset="1" stop-color="#62AAFF"/>
</linearGradient>
</defs>
</svg>
