<svg xmlns="http://www.w3.org/2000/svg" width="36" height="36" viewBox="0 0 36 36" fill="none">
  <path d="M3 8.24452C3 5.90034 4.86665 4 7.16927 4H29.8501V5.69781H7.16927C5.7877 5.69781 4.66771 6.83801 4.66771 8.24452V28.6182C4.66771 30.0247 5.7877 31.1649 7.16927 31.1649H27.8489C29.2304 31.1649 30.3504 30.0247 30.3504 28.6182V21.4874H32.0181V28.6182C32.0181 30.9624 30.1515 32.8627 27.8489 32.8627H7.16927C4.86665 32.8627 3 30.9624 3 28.6182V8.24452Z" fill="#5057AA"/>
  <path d="M13.5066 9.26321V20.1292C13.5066 22.3796 15.2985 24.2039 17.5091 24.2039C19.7196 24.2039 21.5116 22.3796 21.5116 20.1292V9.26321H25.5141V20.1292C25.5141 24.63 21.9301 28.2787 17.5091 28.2787C13.088 28.2787 9.50407 24.63 9.50407 20.1292V9.26321H13.5066Z" fill="#5057AA"/>
  <path d="M29.7167 18.3363C30.1703 18.4902 30.7084 18.5672 31.331 18.5672C32.0426 18.5672 32.6741 18.4495 33.2256 18.2141C33.777 17.9786 34.2084 17.6436 34.5197 17.2089C34.8399 16.7653 35 16.2355 35 15.6198C35 15.0312 34.8799 14.5423 34.6398 14.1529C34.4085 13.7635 34.0794 13.4692 33.6525 13.27C33.2344 13.0618 32.7542 12.935 32.2116 12.8897L32.0515 12.8761L34.3596 10.4585C34.4041 10.4132 34.4441 10.3589 34.4797 10.2955C34.5153 10.2321 34.533 10.1596 34.533 10.0782V9.26321C34.533 9.1636 34.5019 9.08211 34.4396 9.01872C34.3774 8.95534 34.2973 8.92364 34.1995 8.92364H28.4759C28.3781 8.92364 28.298 8.95534 28.2358 9.01872C28.1824 9.08211 28.1557 9.1636 28.1557 9.26321V10.1596C28.1557 10.2502 28.1824 10.3272 28.2358 10.3906C28.298 10.4539 28.3781 10.4856 28.4759 10.4856H32.2916L29.9035 12.8626C29.859 12.9078 29.8145 12.9667 29.7701 13.0391C29.7345 13.1025 29.7167 13.1795 29.7167 13.27V13.8405C29.7167 13.9401 29.7478 14.0216 29.8101 14.085C29.8723 14.1393 29.9524 14.1665 30.0502 14.1665H31.4244C31.9492 14.1665 32.3583 14.2751 32.6519 14.4925C32.9454 14.7007 33.0921 15.0448 33.0921 15.5247C33.0921 16.0046 32.932 16.3759 32.6118 16.6385C32.3005 16.892 31.878 17.0188 31.3444 17.0188C31.0775 17.0188 30.8241 16.9916 30.5839 16.9373C30.3438 16.8739 30.1303 16.7698 29.9435 16.6249C29.7656 16.48 29.6366 16.2853 29.5566 16.0409C29.5121 15.9322 29.4588 15.8598 29.3965 15.8235C29.3342 15.7873 29.2586 15.7692 29.1697 15.7692H27.9689C27.8889 15.7692 27.8177 15.7964 27.7555 15.8507C27.7021 15.896 27.6754 15.9594 27.6754 16.0409C27.6843 16.3306 27.7644 16.6249 27.9156 16.9237C28.0668 17.2135 28.2891 17.4851 28.5827 17.7387C28.8851 17.9831 29.2631 18.1824 29.7167 18.3363Z" fill="#5057AA"/>
</svg>
