<svg width="100" height="101" viewBox="0 0 100 101" fill="none" xmlns="http://www.w3.org/2000/svg">
<path fill-rule="evenodd" clip-rule="evenodd" d="M81.4914 19.6347C78.9922 16.7513 74.8247 15.9757 71.6934 18.616C68.5621 21.2563 68.1212 25.6708 70.5802 28.7936C72.6248 31.3899 78.8122 36.8658 80.8401 38.6381C81.067 38.8364 81.1804 38.9355 81.3128 38.9745C81.4283 39.0085 81.5546 39.0085 81.6701 38.9745C81.8024 38.9355 81.9159 38.8364 82.1428 38.6381C84.1707 36.8658 90.3581 31.3899 92.4026 28.7936C94.8617 25.6708 94.4746 21.2286 91.2895 18.616C88.1044 16.0035 83.9906 16.7513 81.4914 19.6347Z" fill="#1B1E23" stroke="#39424C" stroke-linecap="round" stroke-linejoin="round"/>
<path fill-rule="evenodd" clip-rule="evenodd" d="M49.475 29.7844C42.1774 21.2652 30.0081 18.9736 20.8646 26.7746C11.7212 34.5756 10.4339 47.6184 17.6143 56.8446C23.5843 64.5156 41.6517 80.6944 47.5732 85.9308C48.2357 86.5166 48.5669 86.8096 48.9533 86.9247C49.2905 87.0251 49.6595 87.0251 49.9967 86.9247C50.3831 86.8096 50.7144 86.5166 51.3768 85.9308C57.2983 80.6944 75.3657 64.5156 81.3357 56.8446C88.5161 47.6184 87.386 34.4935 78.0854 26.7746C68.7848 19.0557 56.7726 21.2652 49.475 29.7844Z" fill="#1B1E23" stroke="#39424C" stroke-linecap="round" stroke-linejoin="round"/>
</svg>
