<svg xmlns="http://www.w3.org/2000/svg" viewBox="0 0 32 32" width="20" height="20" style="border-color: rgba(187,187,187,1);border-width: 0;border-style: solid" filter="none">
    
    <g>
    <path d="M7.111 3.556v24.838l6.647-5.412c1.308-1.065 3.184-1.064 4.491 0.001l6.64 5.41v-24.837h-17.778zM7.111 1.778h17.778c0.982 0 1.778 0.796 1.778 1.778v24.837c0 0.982-0.796 1.778-1.778 1.778 0 0 0 0 0 0-0.427 0-0.819-0.151-1.126-0.402l0.003 0.003-6.64-5.41c-0.654-0.533-1.592-0.533-2.245-0l-6.647 5.412c-0.761 0.62-1.881 0.505-2.501-0.256-0.249-0.303-0.399-0.695-0.399-1.122 0 0 0-0 0-0v0-24.838c0-0.982 0.796-1.778 1.778-1.778z" fill="rgba(26,30,35,1)"></path><path d="M19.556 12.444h1.778c0 2.945-2.388 5.333-5.333 5.333s-5.333-2.388-5.333-5.333h1.778c0 1.964 1.592 3.556 3.556 3.556s3.556-1.592 3.556-3.556zM20.444 11.556c0.491 0 0.889 0.398 0.889 0.889 0 2.946-2.388 5.333-5.333 5.333-2.94 0-5.325-2.379-5.333-5.317v-0.016c0-0.491 0.398-0.889 0.889-0.889s0.889 0.398 0.889 0.889c0 1.964 1.592 3.556 3.556 3.556s3.556-1.592 3.556-3.556l0-0.015c0.008-0.484 0.403-0.874 0.889-0.874z" fill="rgba(26,30,35,1)"></path>
    </g>
  </svg>