<svg width="12" height="4" viewBox="0 0 12 4" fill="none" xmlns="http://www.w3.org/2000/svg">
<path d="M5.33301 1.99999C5.33301 2.36818 5.63148 2.66666 5.99967 2.66666C6.36786 2.66666 6.66634 2.36818 6.66634 1.99999C6.66634 1.6318 6.36786 1.33333 5.99967 1.33333C5.63149 1.33333 5.33301 1.6318 5.33301 1.99999Z" stroke="#718096" stroke-linecap="round" stroke-linejoin="round"/>
<path d="M9.99967 1.99999C9.99967 2.36818 10.2982 2.66666 10.6663 2.66666C11.0345 2.66666 11.333 2.36818 11.333 1.99999C11.333 1.63181 11.0345 1.33333 10.6663 1.33333C10.2982 1.33333 9.99967 1.63181 9.99967 1.99999Z" stroke="#718096" stroke-linecap="round" stroke-linejoin="round"/>
<path d="M0.666342 1.99999C0.666342 2.36818 0.964819 2.66666 1.33301 2.66666C1.7012 2.66666 1.99967 2.36818 1.99968 1.99999C1.99968 1.6318 1.7012 1.33333 1.33301 1.33333C0.964819 1.33333 0.666342 1.6318 0.666342 1.99999Z" stroke="#718096" stroke-linecap="round" stroke-linejoin="round"/>
</svg>
