<svg width="16" height="15" viewBox="0 0 16 15" fill="none" xmlns="http://www.w3.org/2000/svg">
<path d="M6.00016 7.50004L7.3335 8.83337L10.3335 5.83337M4.88934 2.04584C5.42523 2.00307 5.93397 1.79235 6.34314 1.44365C7.29798 0.629947 8.70235 0.629947 9.65718 1.44365C10.0664 1.79235 10.5751 2.00307 11.111 2.04584C12.3615 2.14563 13.3546 3.13867 13.4544 4.38922C13.4971 4.92511 13.7079 5.43385 14.0566 5.84302C14.8703 6.79786 14.8703 8.20222 14.0566 9.15706C13.7079 9.56623 13.4971 10.075 13.4544 10.6109C13.3546 11.8614 12.3615 12.8544 11.111 12.9542C10.5751 12.997 10.0664 13.2077 9.65718 13.5564C8.70235 14.3701 7.29798 14.3701 6.34314 13.5564C5.93397 13.2077 5.42523 12.997 4.88934 12.9542C3.63879 12.8544 2.64575 11.8614 2.54596 10.6109C2.5032 10.075 2.29247 9.56623 1.94378 9.15706C1.13007 8.20222 1.13007 6.79786 1.94378 5.84302C2.29247 5.43385 2.5032 4.92511 2.54596 4.38922C2.64575 3.13867 3.63879 2.14563 4.88934 2.04584Z" stroke="#718096" stroke-linecap="round" stroke-linejoin="round"/>
</svg>
