<svg width="20" height="20" viewBox="0 0 20 20" fill="none" xmlns="http://www.w3.org/2000/svg">
<path d="M17.5 10L7.5 10M17.5 5L7.5 5M17.5 15L7.5 15M4.16667 10C4.16667 10.4602 3.79357 10.8333 3.33333 10.8333C2.8731 10.8333 2.5 10.4602 2.5 10C2.5 9.53976 2.8731 9.16667 3.33333 9.16667C3.79357 9.16667 4.16667 9.53976 4.16667 10ZM4.16667 5C4.16667 5.46024 3.79357 5.83333 3.33333 5.83333C2.8731 5.83333 2.5 5.46024 2.5 5C2.5 4.53976 2.8731 4.16667 3.33333 4.16667C3.79357 4.16667 4.16667 4.53976 4.16667 5ZM4.16667 15C4.16667 15.4602 3.79357 15.8333 3.33333 15.8333C2.8731 15.8333 2.5 15.4602 2.5 15C2.5 14.5398 2.8731 14.1667 3.33333 14.1667C3.79357 14.1667 4.16667 14.5398 4.16667 15Z" stroke="#718096" stroke-linecap="round" stroke-linejoin="round"/>
</svg>
