<svg width="16" height="15" viewBox="0 0 16 15" fill="none" xmlns="http://www.w3.org/2000/svg">
<path d="M2.66685 14.045C3.06856 14.1667 3.61116 14.1667 4.5335 14.1667H11.4668C12.3892 14.1667 12.9318 14.1667 13.3335 14.045M2.66685 14.045C2.58071 14.0189 2.50105 13.9872 2.42552 13.9487C2.04919 13.757 1.74323 13.451 1.55148 13.0747C1.3335 12.6469 1.3335 12.0868 1.3335 10.9667V4.03337C1.3335 2.91327 1.3335 2.35322 1.55148 1.92539C1.74323 1.54907 2.04919 1.24311 2.42552 1.05136C2.85334 0.833374 3.41339 0.833374 4.5335 0.833374H11.4668C12.5869 0.833374 13.147 0.833374 13.5748 1.05136C13.9511 1.24311 14.2571 1.54907 14.4488 1.92539C14.6668 2.35322 14.6668 2.91327 14.6668 4.03337V10.9667C14.6668 12.0868 14.6668 12.6469 14.4488 13.0747C14.2571 13.451 13.9511 13.757 13.5748 13.9487C13.4993 13.9872 13.4196 14.0189 13.3335 14.045M2.66685 14.045C2.66706 13.5054 2.6703 13.2199 2.71807 12.9798C2.92849 11.922 3.75541 11.095 4.81326 10.8846C5.07085 10.8334 5.38062 10.8334 6.00016 10.8334H10.0002C10.6197 10.8334 10.9295 10.8334 11.1871 10.8846C12.2449 11.095 13.0718 11.922 13.2823 12.9798C13.33 13.2199 13.3333 13.5054 13.3335 14.045M10.6668 5.83337C10.6668 7.30613 9.47292 8.50004 8.00016 8.50004C6.5274 8.50004 5.3335 7.30613 5.3335 5.83337C5.3335 4.36061 6.5274 3.16671 8.00016 3.16671C9.47292 3.16671 10.6668 4.36061 10.6668 5.83337Z" stroke="#718096" stroke-linecap="round" stroke-linejoin="round"/>
</svg>
