<svg xmlns="http://www.w3.org/2000/svg" width="15" height="17" viewBox="0 0 15 17" fill="none">
  <path d="M5.84634 14.5C6.28705 14.9149 6.86595 15.1666 7.49998 15.1666C8.13401 15.1666 8.71291 14.9149 9.15362 14.5M11.25 5.83331C11.25 4.77245 10.8549 3.75503 10.1516 3.00489C9.44837 2.25474 8.49454 1.83331 7.49998 1.83331C6.50542 1.83331 5.55159 2.25474 4.84833 3.00489C4.14507 3.75503 3.74998 4.77245 3.74998 5.83331C3.74998 7.89344 3.26277 9.30395 2.71852 10.2369C2.25944 11.0239 2.02989 11.4174 2.03831 11.5272C2.04763 11.6487 2.07177 11.695 2.16359 11.7677C2.24652 11.8333 2.62035 11.8333 3.36802 11.8333H11.6319C12.3796 11.8333 12.7534 11.8333 12.8364 11.7677C12.9282 11.695 12.9523 11.6487 12.9617 11.5272C12.9701 11.4174 12.7405 11.0239 12.2814 10.2369C11.7372 9.30395 11.25 7.89344 11.25 5.83331Z" stroke="#718096" stroke-linecap="round" stroke-linejoin="round"/>
</svg>
