<svg width="17" height="16" viewBox="0 0 17 16" fill="none" xmlns="http://www.w3.org/2000/svg">
<path d="M6.73612 14.0007C7.20621 14.4156 7.8237 14.6673 8.5 14.6673C9.1763 14.6673 9.7938 14.4156 10.2639 14.0007M12.5 5.33398C12.5 4.27312 12.0786 3.2557 11.3284 2.50556C10.5783 1.75541 9.56087 1.33398 8.5 1.33398C7.43914 1.33398 6.42172 1.75541 5.67158 2.50556C4.92143 3.2557 4.5 4.27312 4.5 5.33398C4.5 7.39411 3.98032 8.80462 3.39978 9.73759C2.91009 10.5246 2.66524 10.9181 2.67422 11.0278C2.68416 11.1494 2.70991 11.1957 2.80785 11.2684C2.89631 11.334 3.29506 11.334 4.09257 11.334H12.9074C13.7049 11.334 14.1037 11.334 14.1922 11.2684C14.2901 11.1957 14.3158 11.1494 14.3258 11.0278C14.3348 10.9181 14.0899 10.5246 13.6002 9.73759C13.0197 8.80462 12.5 7.39411 12.5 5.33398Z" stroke="#718096" stroke-linecap="round" stroke-linejoin="round"/>
</svg>
