<svg xmlns="http://www.w3.org/2000/svg" width="16" height="17" viewBox="0 0 16 17" fill="none">
  <g clip-path="url(#clip0_2286_23151)">
    <path d="M12.0853 16.2099C11.8603 16.2099 11.6073 16.1453 11.3729 16.028L8.02454 14.3533L4.6555 16.0253C4.44214 16.1389 4.1979 16.1986 3.94886 16.1986C3.62524 16.1998 3.30986 16.0966 3.04965 15.9042C2.57814 15.5504 2.33653 14.9378 2.44806 14.3798L3.13711 10.8052L0.496058 8.3437C0.295623 8.14062 0.15216 7.88837 0.0800791 7.61229C0.00799854 7.33622 0.00983978 7.04603 0.0854178 6.77089L0.0906991 6.75273C0.282699 6.17729 0.759012 5.77409 1.33654 5.69673L5.0059 5.02954L6.65286 1.68456C6.91742 1.15495 7.45551 0.814636 8.02454 0.814636C8.61814 0.814636 9.17014 1.16776 9.40157 1.69417L11.0433 5.02854L14.7132 5.67017C14.9983 5.71148 15.2654 5.83429 15.4823 6.02382C15.6993 6.21335 15.8568 6.46153 15.9361 6.7385C16.0249 7.01114 16.0362 7.30312 15.9687 7.58181C15.9011 7.8605 15.7574 8.11492 15.5537 8.31665L15.5446 8.3257L12.911 10.8057L13.5766 14.3867C13.6838 14.9593 13.4561 15.5378 12.9819 15.8982C12.7279 16.1024 12.4112 16.2125 12.0853 16.2099ZM8.02581 13.1465L11.5831 14.9255C11.6876 14.9781 11.808 15.0112 11.8904 15.0112C12.0172 15.0112 12.1349 14.9722 12.2214 14.9L12.2375 14.8867C12.4397 14.7351 12.5382 14.494 12.494 14.258L11.7781 10.4017L14.6096 7.73529C14.7834 7.55904 14.8429 7.30665 14.7657 7.07457L14.758 7.05017C14.7275 6.94019 14.6654 6.84159 14.5793 6.76659C14.4933 6.69159 14.3872 6.64348 14.2741 6.62825L14.2579 6.6257L10.3401 5.94079L8.57678 2.35923C8.49118 2.15915 8.25886 2.01395 8.02429 2.01395C7.79382 2.01395 7.57334 2.15826 7.46165 2.38107L5.70965 5.93922L1.77118 6.65465C1.53196 6.68465 1.34614 6.84353 1.26029 7.09129C1.19934 7.3177 1.27157 7.5905 1.43798 7.76057L4.2727 10.4021L3.52879 14.2604C3.48406 14.4835 3.58973 14.7403 3.78518 14.887C3.88318 14.9607 4.01014 15.0013 4.14326 15.0013C4.2459 15.0013 4.34429 14.9774 4.42911 14.9318L4.44134 14.9246L8.02581 13.1465Z" fill="#718096"/>
  </g>
  <defs>
    <clipPath id="clip0_2286_23151">
      <rect width="16" height="16" fill="white" transform="translate(0 0.5)"/>
    </clipPath>
  </defs>
</svg>
