<svg width="17" height="17" viewBox="0 0 17 17" fill="none" xmlns="http://www.w3.org/2000/svg">
<g clip-path="url(#clip0_1867_13378)">
<path d="M12.5853 16.2098C12.3602 16.2098 12.1073 16.1453 11.8728 16.028L8.52448 14.3533L5.15544 16.0253C4.94208 16.1389 4.69784 16.1986 4.44879 16.1986C4.12518 16.1998 3.8098 16.0966 3.54959 15.9042C3.07808 15.5504 2.83647 14.9377 2.948 14.3798L3.63704 10.8052L0.995997 8.34368C0.795562 8.14061 0.652099 7.88836 0.580018 7.61228C0.507938 7.3362 0.509779 7.04601 0.585357 6.77087L0.590638 6.75272C0.782638 6.17728 1.25895 5.77408 1.83648 5.69672L5.50584 5.02953L7.15279 1.68454C7.41736 1.15493 7.95545 0.814621 8.52448 0.814621C9.11808 0.814621 9.67008 1.16775 9.90151 1.69415L11.5432 5.02853L15.2131 5.67015C15.4982 5.71146 15.7653 5.83427 15.9823 6.0238C16.1992 6.21333 16.3568 6.46151 16.436 6.73848C16.5248 7.01112 16.5361 7.3031 16.4686 7.58179C16.4011 7.86048 16.2574 8.11491 16.0536 8.31664L16.0446 8.32568L13.411 10.8057L14.0766 14.3866C14.1837 14.9593 13.956 15.5378 13.4818 15.8982C13.2279 16.1024 12.9111 16.2125 12.5853 16.2098ZM8.52575 13.1465L12.083 14.9254C12.1875 14.9781 12.3079 15.0112 12.3903 15.0112C12.5171 15.0112 12.6349 14.9722 12.7214 14.9L12.7375 14.8867C12.9396 14.735 13.0382 14.494 12.9939 14.258L12.2781 10.4017L15.1095 7.73528C15.2834 7.55903 15.3428 7.30664 15.2657 7.07456L15.2579 7.05015C15.2274 6.94018 15.1653 6.84158 15.0793 6.76657C14.9932 6.69157 14.8871 6.64347 14.774 6.62823L14.7578 6.62568L10.84 5.94078L9.07672 2.35921C8.99112 2.15914 8.75879 2.01393 8.52423 2.01393C8.29376 2.01393 8.07328 2.15825 7.96159 2.38106L6.20959 5.9392L2.27112 6.65464C2.0319 6.68464 1.84608 6.84351 1.76023 7.09128C1.69928 7.31768 1.77151 7.59048 1.93792 7.76056L4.77264 10.4021L4.02873 14.2604C3.984 14.4835 4.08967 14.7403 4.28512 14.887C4.38312 14.9606 4.51008 15.0013 4.6432 15.0013C4.74584 15.0013 4.84423 14.9774 4.92904 14.9317L4.94128 14.9246L8.52575 13.1465Z" fill="#718096"/>
</g>
<defs>
<clipPath id="clip0_1867_13378">
<rect width="16" height="16" fill="white" transform="translate(0.5 0.5)"/>
</clipPath>
</defs>
</svg>
