<svg xmlns="http://www.w3.org/2000/svg" width="16" height="17" viewBox="0 0 16 17" fill="none">
  <path d="M8 15.1666C11.6819 15.1666 14.6667 12.1819 14.6667 8.49998C14.6667 4.81808 11.6819 1.83331 8 1.83331C4.3181 1.83331 1.33333 4.81808 1.33333 8.49998C1.33333 12.1819 4.3181 15.1666 8 15.1666Z" stroke="white" stroke-linecap="round" stroke-linejoin="round"/>
  <path d="M9.81473 6.01062C10.1404 5.90206 10.3033 5.84777 10.4116 5.88639C10.5058 5.92 10.58 5.99416 10.6136 6.0884C10.6522 6.19669 10.5979 6.35954 10.4894 6.68524L9.49766 9.66033C9.46674 9.75309 9.45128 9.79947 9.42493 9.83799C9.40159 9.8721 9.37212 9.90158 9.338 9.92491C9.29949 9.95126 9.25311 9.96672 9.16035 9.99764L6.18526 10.9893C5.85956 11.0979 5.69671 11.1522 5.58841 11.1136C5.49417 11.08 5.42001 11.0058 5.38641 10.9116C5.34779 10.8033 5.40207 10.6404 5.51064 10.3147L6.50233 7.33963C6.53325 7.24687 6.54871 7.20049 6.57506 7.16197C6.5984 7.12786 6.62787 7.09838 6.66199 7.07505C6.7005 7.0487 6.74688 7.03324 6.83964 7.00232L9.81473 6.01062Z" stroke="white" stroke-linecap="round" stroke-linejoin="round"/>
</svg>
