<svg xmlns="http://www.w3.org/2000/svg" width="16" height="17" viewBox="0 0 16 17" fill="none">
  <path d="M8.00004 15.1666C11.6819 15.1666 14.6667 12.1819 14.6667 8.49998C14.6667 4.81808 11.6819 1.83331 8.00004 1.83331C4.31814 1.83331 1.33337 4.81808 1.33337 8.49998C1.33337 12.1819 4.31814 15.1666 8.00004 15.1666Z" stroke="white" stroke-linecap="round" stroke-linejoin="round"/>
  <path d="M9.81478 6.01062C10.1405 5.90206 10.3033 5.84777 10.4116 5.88639C10.5059 5.92 10.58 5.99416 10.6136 6.0884C10.6522 6.19669 10.598 6.35954 10.4894 6.68524L9.4977 9.66033C9.46678 9.75309 9.45132 9.79947 9.42497 9.83799C9.40164 9.8721 9.37216 9.90158 9.33805 9.92491C9.29953 9.95126 9.25315 9.96672 9.16039 9.99764L6.1853 10.9893C5.85961 11.0979 5.69676 11.1522 5.58846 11.1136C5.49422 11.08 5.42006 11.0058 5.38645 10.9116C5.34783 10.8033 5.40212 10.6404 5.51068 10.3147L6.50238 7.33963C6.5333 7.24687 6.54876 7.20049 6.57511 7.16197C6.59844 7.12786 6.62792 7.09838 6.66203 7.07505C6.70055 7.0487 6.74693 7.03324 6.83969 7.00232L9.81478 6.01062Z" stroke="white" stroke-linecap="round" stroke-linejoin="round"/>
</svg>
