<svg width="17" height="16" viewBox="0 0 17 16" fill="none" xmlns="http://www.w3.org/2000/svg">
    <path
        d="M8.5 14.6673C12.1819 14.6673 15.1667 11.6826 15.1667 8.00065C15.1667 4.31875 12.1819 1.33398 8.5 1.33398C4.8181 1.33398 1.83333 4.31875 1.83333 8.00065C1.83333 11.6826 4.8181 14.6673 8.5 14.6673Z"
        stroke="#718096" stroke-linecap="round" stroke-linejoin="round" />
    <path
        d="M10.3147 5.51129C10.6404 5.40273 10.8033 5.34845 10.9116 5.38706C11.0058 5.42067 11.08 5.49483 11.1136 5.58907C11.1522 5.69737 11.0979 5.86022 10.9894 6.18591L9.99766 9.161C9.96674 9.25376 9.95128 9.30014 9.92493 9.33866C9.90159 9.37277 9.87212 9.40225 9.838 9.42559C9.79949 9.45193 9.75311 9.46739 9.66035 9.49831L6.68526 10.49C6.35956 10.5986 6.19671 10.6529 6.08841 10.6142C5.99417 10.5806 5.92001 10.5065 5.88641 10.4122C5.84779 10.3039 5.90207 10.1411 6.01064 9.81539L7.00233 6.8403C7.03325 6.74754 7.04871 6.70116 7.07506 6.66264C7.0984 6.62853 7.12787 6.59905 7.16199 6.57572C7.2005 6.54937 7.24688 6.53391 7.33964 6.50299L10.3147 5.51129Z"
        stroke="#718096" stroke-linecap="round" stroke-linejoin="round" />
</svg>