<svg width="17" height="17" viewBox="0 0 17 17" fill="none" xmlns="http://www.w3.org/2000/svg">
<path d="M13.9172 2.27344H9.80314C9.26251 2.27344 8.82345 2.7125 8.82345 3.25312V7.36719C8.82345 7.90781 9.26251 8.34688 9.80314 8.34688H13.9172C14.4578 8.34688 14.8969 7.92656 14.8969 7.41094V6.66094C14.8969 6.39062 14.6781 6.17031 14.4063 6.17031C14.136 6.17031 13.9156 6.38906 13.9156 6.66094V7.36875H9.80314V3.25469H13.9172V3.69375C13.9172 3.96406 14.1359 4.18438 14.4078 4.18438C14.6781 4.18438 14.8984 3.96562 14.8984 3.69375V3.19844C14.8984 2.68906 14.4578 2.27344 13.9172 2.27344ZM7.29689 2.27344H3.18126C2.64064 2.27344 2.20157 2.7125 2.20157 3.25312V7.36719C2.20157 7.90781 2.64064 8.34688 3.18126 8.34688H7.29689C7.83751 8.34688 8.27658 7.90781 8.27658 7.36719V3.25469C8.27658 2.71406 7.83751 2.27344 7.29689 2.27344ZM7.29689 7.36875H3.18126V3.25469H7.29689V7.36875ZM7.24689 8.84219H3.13282C2.5922 8.84219 2.15314 9.28125 2.15314 9.82187V13.9375C2.15314 14.4781 2.5922 14.9172 3.13282 14.9172H7.24689C7.78751 14.9172 8.22657 14.4781 8.22657 13.9375V9.82344C8.22814 9.28281 7.78751 8.84219 7.24689 8.84219ZM7.24689 13.9375H3.13282V9.82344H7.24689V13.9375ZM13.8688 8.84219H9.75314C9.21251 8.84219 8.77345 9.28125 8.77345 9.82187V13.9375C8.77345 14.4781 9.21251 14.9172 9.75314 14.9172H13.8672C14.4078 14.9172 14.8469 14.4781 14.8469 13.9375V9.82344C14.8484 9.28281 14.4094 8.84219 13.8688 8.84219ZM13.8688 13.9375H9.75314V9.82344H13.8672V13.9375H13.8688Z" fill="#718096"/>
<path d="M13.9172 5.16563C13.9172 5.23006 13.9299 5.29386 13.9545 5.35338C13.9792 5.41291 14.0153 5.46699 14.0609 5.51255C14.1064 5.55811 14.1605 5.59425 14.22 5.61891C14.2796 5.64356 14.3434 5.65625 14.4078 5.65625C14.4722 5.65625 14.536 5.64356 14.5956 5.61891C14.6551 5.59425 14.7092 5.55811 14.7547 5.51255C14.8003 5.46699 14.8364 5.41291 14.8611 5.35338C14.8857 5.29386 14.8984 5.23006 14.8984 5.16563C14.8984 5.1012 14.8857 5.0374 14.8611 4.97787C14.8364 4.91835 14.8003 4.86426 14.7547 4.8187C14.7092 4.77314 14.6551 4.73701 14.5956 4.71235C14.536 4.68769 14.4722 4.675 14.4078 4.675C14.3434 4.675 14.2796 4.68769 14.22 4.71235C14.1605 4.73701 14.1064 4.77314 14.0609 4.8187C14.0153 4.86426 13.9792 4.91835 13.9545 4.97787C13.9299 5.0374 13.9172 5.1012 13.9172 5.16563Z" fill="#718096"/>
</svg>
