<svg xmlns="http://www.w3.org/2000/svg" width="17" height="16" viewBox="0 0 17 16" fill="none">
  <path d="M6.5 10.667C7.06692 11.0872 7.7564 11.3337 8.5 11.3337C9.2436 11.3337 9.93307 11.0872 10.5 10.667"
        stroke="#718096" stroke-linecap="round"/>
  <path d="M14.9238 8.63827L14.738 9.92981C14.413 12.1881 14.2506 13.3173 13.4672 13.9918C12.6838 14.6663 11.535 14.6663 9.23732 14.6663H7.76252C5.46483 14.6663 4.31598 14.6663 3.5326 13.9918C2.74922 13.3173 2.58675 12.1881 2.26181 9.92981L2.07596 8.63827C1.823 6.88021 1.69652 6.0012 2.05683 5.24964C2.41714 4.49807 3.18404 4.04123 4.71786 3.12755L5.64108 2.57759C7.03394 1.74787 7.73038 1.33301 8.49992 1.33301C9.26945 1.33301 9.96592 1.74787 11.3587 2.57759L12.282 3.12755C13.8158 4.04123 14.5827 4.49807 14.943 5.24964" stroke="#718096" stroke-linecap="round"/>
</svg>
