<svg width="17" height="16" viewBox="0 0 17 16" fill="none" xmlns="http://www.w3.org/2000/svg">
<path d="M11.3 14H5.12091C4.71704 14 4.5151 14 4.42159 13.9201C4.34045 13.8508 4.29739 13.7469 4.30577 13.6405C4.31541 13.5179 4.45821 13.3751 4.74379 13.0895L10.4124 7.42091C10.6764 7.15691 10.8084 7.0249 10.9607 6.97544C11.0946 6.93193 11.2388 6.93193 11.3727 6.97544C11.5249 7.0249 11.6569 7.1569 11.9209 7.42091L14.5 10V10.8M11.3 14C12.4201 14 12.9802 14 13.408 13.782C13.7843 13.5903 14.0903 13.2843 14.282 12.908C14.5 12.4802 14.5 11.9201 14.5 10.8M11.3 14H5.7C4.5799 14 4.01984 14 3.59202 13.782C3.21569 13.5903 2.90973 13.2843 2.71799 12.908C2.5 12.4802 2.5 11.9201 2.5 10.8V5.2C2.5 4.0799 2.5 3.51984 2.71799 3.09202C2.90973 2.71569 3.21569 2.40973 3.59202 2.21799C4.01984 2 4.5799 2 5.7 2H11.3C12.4201 2 12.9802 2 13.408 2.21799C13.7843 2.40973 14.0903 2.71569 14.282 3.09202C14.5 3.51984 14.5 4.0799 14.5 5.2V10.8M7.5 5.66667C7.5 6.40305 6.90305 7 6.16667 7C5.43029 7 4.83333 6.40305 4.83333 5.66667C4.83333 4.93029 5.43029 4.33333 6.16667 4.33333C6.90305 4.33333 7.5 4.93029 7.5 5.66667Z" stroke="#718096" stroke-linecap="round" stroke-linejoin="round"/>
</svg>
