<svg width="17" height="16" viewBox="0 0 17 16" fill="none" xmlns="http://www.w3.org/2000/svg">
<path d="M14.5 14H3.56667C3.1933 14 3.00661 14 2.86401 13.9273C2.73856 13.8634 2.63658 13.7614 2.57266 13.636C2.5 13.4934 2.5 13.3067 2.5 12.9333V2M13.8333 5.33333L11.2208 8.12177C11.1217 8.22745 11.0722 8.28029 11.0125 8.3076C10.9598 8.3317 10.9017 8.34164 10.844 8.33644C10.7786 8.33055 10.7143 8.29718 10.5858 8.23045L8.41421 7.10288C8.28569 7.03615 8.22143 7.00278 8.15602 6.99689C8.09829 6.99169 8.04021 7.00163 7.98749 7.02574C7.92777 7.05305 7.87826 7.10589 7.77925 7.21156L5.16667 10" stroke="#718096" stroke-linecap="round" stroke-linejoin="round"/>
</svg>
