<svg width="17" height="16" viewBox="0 0 17 16" fill="none" xmlns="http://www.w3.org/2000/svg">
<path d="M7.16666 10.0007L5.11649 12.0764C4.83052 12.366 4.68753 12.5108 4.56463 12.521C4.458 12.5298 4.35361 12.487 4.28397 12.4057C4.2037 12.3121 4.2037 12.1086 4.2037 11.7017V10.6617C4.2037 10.2966 3.90471 10.0324 3.54346 9.97953V9.97953C2.66916 9.85147 1.98251 9.16482 1.85445 8.29052C1.83333 8.14635 1.83333 7.97433 1.83333 7.63028V4.53398C1.83333 3.41388 1.83333 2.85383 2.05132 2.426C2.24306 2.04968 2.54902 1.74372 2.92535 1.55197C3.35317 1.33398 3.91322 1.33398 5.03333 1.33398H9.96666C11.0868 1.33398 11.6468 1.33398 12.0746 1.55197C12.451 1.74372 12.7569 2.04968 12.9487 2.426C13.1667 2.85383 13.1667 3.41388 13.1667 4.53398V7.33398M13.1667 14.6673L11.7157 13.6586C11.5118 13.5168 11.4098 13.4459 11.2988 13.3956C11.2003 13.351 11.0967 13.3185 10.9904 13.2989C10.8706 13.2768 10.7463 13.2768 10.4979 13.2768H9.3C8.55326 13.2768 8.17989 13.2768 7.89467 13.1315C7.64379 13.0037 7.43982 12.7997 7.31199 12.5488C7.16666 12.2636 7.16666 11.8902 7.16666 11.1435V9.46732C7.16666 8.72058 7.16666 8.34721 7.31199 8.062C7.43982 7.81111 7.64379 7.60714 7.89467 7.47931C8.17989 7.33398 8.55326 7.33398 9.3 7.33398H13.0333C13.7801 7.33398 14.1534 7.33398 14.4386 7.47931C14.6895 7.60714 14.8935 7.81111 15.0213 8.062C15.1667 8.34721 15.1667 8.72058 15.1667 9.46732V11.2768C15.1667 11.8981 15.1667 12.2087 15.0652 12.4538C14.9298 12.7805 14.6703 13.04 14.3436 13.1753C14.0985 13.2768 13.7879 13.2768 13.1667 13.2768V14.6673Z" stroke="#718096" stroke-linecap="round" stroke-linejoin="round"/>
</svg>
