<svg width="17" height="17" viewBox="0 0 17 17" fill="none" xmlns="http://www.w3.org/2000/svg">
<g clip-path="url(#clip0_1867_13364)">
<g clip-path="url(#clip1_1867_13364)">
<path d="M13.4762 0.5H12.5159C12.278 0.5 12.0832 0.69479 12.0832 0.932616C12.0832 1.17044 12.278 1.36523 12.5159 1.36523H13.4762C14.4275 1.36523 15.2022 2.13986 15.2022 3.09343V13.9066C15.2022 14.8601 14.4253 15.6348 13.4717 15.6348H3.09343C2.13986 15.6348 1.36523 14.8601 1.36523 13.9066V3.09343C1.36523 2.13986 2.13986 1.36523 3.09343 1.36523H4.11042C4.34824 1.36523 4.54304 1.17044 4.54304 0.932616C4.54304 0.69479 4.34824 0.5 4.11042 0.5H3.09343C1.66421 0.5 0.5 1.66421 0.5 3.09343V13.9066C0.5 15.3358 1.66421 16.5 3.09343 16.5H13.474C14.9032 16.5 16.0674 15.3358 16.0674 13.9066V3.09343C16.0651 1.66421 14.9032 0.5 13.4762 0.5Z" fill="#718096"/>
<path d="M7.01518 4.5338H9.62859C9.97199 4.5338 10.2503 4.30246 10.2503 4.0169C10.2503 3.73134 9.97199 3.5 9.62859 3.5H7.01518C6.67179 3.5 6.39346 3.73134 6.39346 4.0169C6.39165 4.30065 6.66998 4.5338 7.01518 4.5338ZM11.5155 7.81411H5.10302C5.04699 7.81411 5 7.76893 5 7.7111V7.15263C5 7.0966 5.04518 7.04961 5.10302 7.04961H11.5155C11.5715 7.04961 11.6185 7.09479 11.6185 7.15263V7.7111C11.6185 7.76893 11.5715 7.81411 11.5155 7.81411ZM11.5155 13.5H8.4484C8.39237 13.5 8.34538 13.4548 8.34538 13.397V12.8385C8.34538 12.7825 8.39057 12.7355 8.4484 12.7355H11.5155C11.5715 12.7355 11.6185 12.7807 11.6185 12.8385V13.397C11.6185 13.453 11.5715 13.5 11.5155 13.5ZM7.4634 13.5H5.15362C5.0976 13.5 5.05061 13.4548 5.05061 13.397V9.12443C5.05061 9.06841 5.09579 9.02142 5.15362 9.02142H7.4634C7.51943 9.02142 7.56642 9.0666 7.56642 9.12443V13.397C7.56642 13.453 7.51943 13.5 7.4634 13.5ZM11.5155 9.80038H8.4484C8.39237 9.80038 8.34538 9.7552 8.34538 9.69736V9.13889C8.34538 9.08287 8.39057 9.03587 8.4484 9.03587H11.5155C11.5715 9.03587 11.6185 9.08106 11.6185 9.13889V9.69736C11.6185 9.7552 11.5715 9.80038 11.5155 9.80038ZM11.5155 11.6565H8.4484C8.39237 11.6565 8.34538 11.6113 8.34538 11.5535V10.995C8.34538 10.939 8.39057 10.892 8.4484 10.892H11.5155C11.5715 10.892 11.6185 10.9372 11.6185 10.995V11.5535C11.6185 11.6113 11.5715 11.6565 11.5155 11.6565Z" fill="#718096"/>
</g>
</g>
<defs>
<clipPath id="clip0_1867_13364">
<rect width="16" height="16" fill="white" transform="translate(0.5 0.5)"/>
</clipPath>
<clipPath id="clip1_1867_13364">
<rect width="16" height="16" fill="white" transform="translate(0.5 0.5)"/>
</clipPath>
</defs>
</svg>
