<svg xmlns="http://www.w3.org/2000/svg" width="16" height="17" viewBox="0 0 16 17" fill="none">
  <g clip-path="url(#clip0_2285_23108)">
    <path d="M12.9762 0.5H12.0159C11.778 0.5 11.5832 0.69479 11.5832 0.932616C11.5832 1.17044 11.778 1.36523 12.0159 1.36523H12.9762C13.9275 1.36523 14.7022 2.13986 14.7022 3.09343V13.9066C14.7022 14.8601 13.9253 15.6348 12.9717 15.6348H2.59343C1.63986 15.6348 0.865232 14.8601 0.865232 13.9066V3.09343C0.865232 2.13986 1.63986 1.36523 2.59343 1.36523H3.61042C3.84824 1.36523 4.04304 1.17044 4.04304 0.932616C4.04304 0.69479 3.84824 0.5 3.61042 0.5H2.59343C1.16421 0.5 0 1.66421 0 3.09343V13.9066C0 15.3358 1.16421 16.5 2.59343 16.5H12.974C14.4032 16.5 15.5674 15.3358 15.5674 13.9066V3.09343C15.5651 1.66421 14.4032 0.5 12.9762 0.5Z" fill="#718096"/>
    <path d="M6.51518 4.5338H9.12859C9.47199 4.5338 9.75032 4.30246 9.75032 4.0169C9.75032 3.73134 9.47199 3.5 9.12859 3.5H6.51518C6.17179 3.5 5.89346 3.73134 5.89346 4.0169C5.89165 4.30065 6.16998 4.5338 6.51518 4.5338ZM11.0155 7.81411H4.60302C4.54699 7.81411 4.5 7.76893 4.5 7.7111V7.15263C4.5 7.0966 4.54518 7.04961 4.60302 7.04961H11.0155C11.0715 7.04961 11.1185 7.09479 11.1185 7.15263V7.7111C11.1185 7.76893 11.0715 7.81411 11.0155 7.81411ZM11.0155 13.5H7.9484C7.89237 13.5 7.84538 13.4548 7.84538 13.397V12.8385C7.84538 12.7825 7.89057 12.7355 7.9484 12.7355H11.0155C11.0715 12.7355 11.1185 12.7807 11.1185 12.8385V13.397C11.1185 13.453 11.0715 13.5 11.0155 13.5ZM6.9634 13.5H4.65362C4.5976 13.5 4.55061 13.4548 4.55061 13.397V9.12443C4.55061 9.06841 4.59579 9.02142 4.65362 9.02142H6.9634C7.01943 9.02142 7.06642 9.0666 7.06642 9.12443V13.397C7.06642 13.453 7.01943 13.5 6.9634 13.5ZM11.0155 9.80038H7.9484C7.89237 9.80038 7.84538 9.7552 7.84538 9.69736V9.13889C7.84538 9.08287 7.89057 9.03587 7.9484 9.03587H11.0155C11.0715 9.03587 11.1185 9.08106 11.1185 9.13889V9.69736C11.1185 9.7552 11.0715 9.80038 11.0155 9.80038ZM11.0155 11.6565H7.9484C7.89237 11.6565 7.84538 11.6113 7.84538 11.5535V10.995C7.84538 10.939 7.89057 10.892 7.9484 10.892H11.0155C11.0715 10.892 11.1185 10.9372 11.1185 10.995V11.5535C11.1185 11.6113 11.0715 11.6565 11.0155 11.6565Z" fill="#718096"/>
  </g>
  <defs>
    <clipPath id="clip0_2285_23108">
      <rect width="16" height="16" fill="white" transform="translate(0 0.5)"/>
    </clipPath>
  </defs>
</svg>
