<svg xmlns="http://www.w3.org/2000/svg" width="13" height="14" viewBox="0 0 13 14" fill="none">
  <path d="M3.495 8.49875C3.16348 8.49875 2.84554 8.63045 2.61112 8.86487C2.3767 9.09929 2.245 9.41723 2.245 9.74875C2.245 10.0803 2.3767 10.3982 2.61112 10.6326C2.84554 10.8671 3.16348 10.9987 3.495 10.9987C3.82652 10.9987 4.14446 10.8671 4.37888 10.6326C4.6133 10.3982 4.745 10.0803 4.745 9.74875C4.745 9.41723 4.6133 9.09929 4.37888 8.86487C4.14446 8.63045 3.82652 8.49875 3.495 8.49875ZM2.25 5.51825V6.76825C4.5 6.768 6.476 8.75 6.476 11H7.726C7.726 8 5.25 5.51825 2.25 5.51825ZM2.25 2.74875V3.99875C6 3.99875 9.24525 7.25 9.24525 11H10.4952C10.4952 6.5 6.75 2.74875 2.25 2.74875ZM10.625 0.5H2.125C1.56141 0.5 1.02091 0.723883 0.622398 1.1224C0.223883 1.52091 0 2.06141 0 2.625V11.125C0 11.6886 0.223883 12.2291 0.622398 12.6276C1.02091 13.0261 1.56141 13.25 2.125 13.25H10.625C11.1886 13.25 11.7291 13.0261 12.1276 12.6276C12.5261 12.2291 12.75 11.6886 12.75 11.125V2.625C12.75 2.06141 12.5261 1.52091 12.1276 1.1224C11.7291 0.723883 11.1886 0.5 10.625 0.5ZM11.5 11.125C11.5 11.3571 11.4078 11.5796 11.2437 11.7437C11.0796 11.9078 10.8571 12 10.625 12H2.125C1.89294 12 1.67038 11.9078 1.50628 11.7437C1.34219 11.5796 1.25 11.3571 1.25 11.125V2.625C1.25 2.39294 1.34219 2.17038 1.50628 2.00628C1.67038 1.84219 1.89294 1.75 2.125 1.75H10.625C10.8571 1.75 11.0796 1.84219 11.2437 2.00628C11.4078 2.17038 11.5 2.39294 11.5 2.625V11.125Z" fill="white"/>
</svg>
