<svg width="17" height="16" viewBox="0 0 17 16" fill="none" xmlns="http://www.w3.org/2000/svg">
<path d="M11.2651 6.85058H10.4514C10.4514 7.38591 10.2658 7.84338 9.89453 8.223C9.52326 8.60261 9.07584 8.79242 8.55227 8.79242C8.38078 8.79242 8.21419 8.76813 8.05245 8.71955C7.89072 8.67097 7.74087 8.60527 7.60291 8.52242C7.46493 8.43958 7.33884 8.33978 7.22462 8.223C7.11039 8.1062 7.01279 7.97728 6.93176 7.83622C6.85076 7.69514 6.78648 7.53944 6.73897 7.36909C6.69147 7.19875 6.66771 7.02606 6.66771 6.85105H5.85403C5.85403 7.61994 6.1181 8.27439 6.64624 8.81437C7.17438 9.35439 7.81216 9.62438 8.55959 9.62438C9.30701 9.62438 9.94481 9.35439 10.4729 8.81437C11.0011 8.27437 11.2651 7.61994 11.2651 6.85105V6.85058H11.2651ZM16.3902 9.7262C16.3902 9.38552 16.345 9.05214 16.2545 8.72608C16.1641 8.40003 16.0356 8.09827 15.8689 7.8208C15.7023 7.54333 15.5024 7.29031 15.2691 7.06172C15.0369 6.83394 14.7751 6.63997 14.491 6.48528C14.4719 5.39531 14.1958 4.39288 13.6628 3.47792C13.1297 2.56297 12.4111 1.83802 11.5068 1.30298C10.6025 0.767969 9.61735 0.500312 8.55134 0.5C8.15143 0.5 7.75884 0.541422 7.37356 0.62425C6.98826 0.707094 6.61942 0.823875 6.26704 0.974609C5.91463 1.12533 5.57914 1.31031 5.26057 1.52956C4.94199 1.74881 4.65171 1.99216 4.3898 2.25969C4.12785 2.52719 3.88755 2.82164 3.66885 3.14302C3.45017 3.46439 3.26452 3.80259 3.11195 4.15762C2.95936 4.51264 2.84041 4.88727 2.75512 5.28153C2.66985 5.67578 2.62705 6.0772 2.62676 6.48578C2.04623 6.80684 1.58465 7.257 1.242 7.83625C0.899351 8.41547 0.728027 9.04562 0.728027 9.7267C0.728027 10.5734 0.980222 11.3277 1.4846 11.9895C1.98897 12.6512 2.6362 13.0892 3.42628 13.3035L2.61257 15.975H3.42625L3.69762 15.143L4.42586 12.6467H4.4117C4.3925 12.6563 4.3782 12.6612 4.36874 12.6612C3.58812 12.6612 2.92185 12.3765 2.36996 11.8073C1.81808 11.238 1.54198 10.5543 1.54167 9.75609C1.54167 9.28897 1.644 8.85345 1.84868 8.44955C2.05337 8.04564 2.33174 7.70744 2.68383 7.43495C2.83612 8.53456 3.25019 9.51506 3.92604 10.3764C4.60191 11.2378 5.43947 11.8631 6.43879 12.2524L5.56802 15.143L5.3108 15.9605H6.12447L6.39586 15.143L7.55219 11.7269C6.37196 11.4837 5.38924 10.8803 4.60403 9.91678C3.81884 8.95327 3.42625 7.84384 3.42625 6.58852C3.42625 5.63464 3.65467 4.75395 4.11155 3.94644C4.56841 3.13894 5.19187 2.50145 5.98196 2.03402C6.77204 1.56658 7.62864 1.33303 8.55181 1.33333C9.11345 1.33333 9.65606 1.42098 10.1796 1.59631C10.7032 1.77166 11.1744 2.02219 11.5932 2.34794C12.012 2.67367 12.3784 3.0508 12.6924 3.47931C13.0064 3.90781 13.2514 4.38958 13.4275 4.92459C13.6035 5.45961 13.6916 6.01439 13.6916 6.58897C13.6916 7.8443 13.299 8.95372 12.5138 9.91725C11.7286 10.8808 10.7411 11.4841 9.55145 11.7274L10.7224 15.1435L10.9938 15.9609H11.7932L11.5506 15.1435L10.6799 12.2529C11.6697 11.8636 12.5049 11.2383 13.1853 10.3769C13.8657 9.51552 14.2821 8.53503 14.4344 7.43541C14.7865 7.70789 15.0649 8.04609 15.2695 8.45002C15.4742 8.85392 15.5765 9.28944 15.5765 9.75656C15.5765 10.5547 15.3004 11.2384 14.7482 11.8077C14.196 12.377 13.5298 12.6616 12.7495 12.6616C12.74 12.6616 12.7304 12.6568 12.7207 12.6471H12.6919L13.4201 15.1435L13.6915 15.9754H14.5052L13.6915 13.3039C14.4816 13.0896 15.1288 12.6516 15.6332 11.9899C16.1376 11.3281 16.3898 10.5739 16.3898 9.72711L16.3902 9.7262Z" fill="#718096"/>
</svg>
