<svg xmlns="http://www.w3.org/2000/svg" width="16" height="17" viewBox="0 0 16 17" fill="none">
  <g clip-path="url(#clip0_2285_23112)">
    <path d="M10.7651 6.85058H9.95144C9.95144 7.38591 9.76582 7.84338 9.39453 8.223C9.02326 8.60261 8.57584 8.79242 8.05227 8.79242C7.88078 8.79242 7.71419 8.76813 7.55245 8.71955C7.39072 8.67097 7.24087 8.60527 7.10291 8.52242C6.96493 8.43958 6.83884 8.33978 6.72462 8.223C6.61039 8.1062 6.51279 7.97728 6.43176 7.83622C6.35076 7.69514 6.28648 7.53944 6.23897 7.36909C6.19147 7.19875 6.16771 7.02606 6.16771 6.85105H5.35403C5.35403 7.61994 5.6181 8.27439 6.14624 8.81437C6.67438 9.35439 7.31216 9.62438 8.05959 9.62438C8.80701 9.62438 9.44481 9.35439 9.97293 8.81437C10.5011 8.27437 10.7651 7.61994 10.7651 6.85105V6.85058H10.7651ZM15.8902 9.7262C15.8902 9.38552 15.845 9.05214 15.7545 8.72608C15.6641 8.40003 15.5356 8.09827 15.3689 7.8208C15.2023 7.54333 15.0024 7.29031 14.7691 7.06172C14.5369 6.83394 14.2751 6.63997 13.991 6.48528C13.9719 5.39531 13.6958 4.39288 13.1628 3.47792C12.6297 2.56297 11.9111 1.83802 11.0068 1.30298C10.1025 0.767969 9.11735 0.500312 8.05134 0.5C7.65143 0.5 7.25884 0.541422 6.87356 0.62425C6.48826 0.707094 6.11942 0.823875 5.76704 0.974609C5.41463 1.12533 5.07914 1.31031 4.76057 1.52956C4.44199 1.74881 4.15171 1.99216 3.8898 2.25969C3.62785 2.52719 3.38755 2.82164 3.16885 3.14302C2.95017 3.46439 2.76452 3.80259 2.61195 4.15762C2.45936 4.51264 2.34041 4.88727 2.25512 5.28153C2.16985 5.67578 2.12705 6.0772 2.12676 6.48578C1.54623 6.80684 1.08465 7.257 0.741999 7.83625C0.399351 8.41547 0.228027 9.04562 0.228027 9.7267C0.228027 10.5734 0.480222 11.3277 0.984597 11.9895C1.48897 12.6512 2.1362 13.0892 2.92628 13.3035L2.11257 15.975H2.92625L3.19762 15.143L3.92586 12.6467H3.9117C3.8925 12.6563 3.8782 12.6612 3.86874 12.6612C3.08812 12.6612 2.42185 12.3765 1.86996 11.8073C1.31808 11.238 1.04198 10.5543 1.04167 9.75609C1.04167 9.28897 1.144 8.85345 1.34868 8.44955C1.55337 8.04564 1.83174 7.70744 2.18383 7.43495C2.33612 8.53456 2.75019 9.51506 3.42604 10.3764C4.10191 11.2378 4.93947 11.8631 5.93879 12.2524L5.06802 15.143L4.8108 15.9605H5.62447L5.89586 15.143L7.05219 11.7269C5.87196 11.4837 4.88924 10.8803 4.10403 9.91678C3.31884 8.95327 2.92625 7.84384 2.92625 6.58852C2.92625 5.63464 3.15467 4.75395 3.61155 3.94644C4.06841 3.13894 4.69187 2.50145 5.48196 2.03402C6.27204 1.56658 7.12864 1.33303 8.05181 1.33333C8.61345 1.33333 9.15606 1.42098 9.67963 1.59631C10.2032 1.77166 10.6744 2.02219 11.0932 2.34794C11.512 2.67367 11.8784 3.0508 12.1924 3.47931C12.5064 3.90781 12.7514 4.38958 12.9275 4.92459C13.1035 5.45961 13.1916 6.01439 13.1916 6.58897C13.1916 7.8443 12.799 8.95372 12.0138 9.91725C11.2286 10.8808 10.2411 11.4841 9.05145 11.7274L10.2224 15.1435L10.4938 15.9609H11.2932L11.0506 15.1435L10.1799 12.2529C11.1697 11.8636 12.0049 11.2383 12.6853 10.3769C13.3657 9.51552 13.7821 8.53503 13.9344 7.43541C14.2865 7.70789 14.5649 8.04609 14.7695 8.45002C14.9742 8.85392 15.0765 9.28944 15.0765 9.75656C15.0765 10.5547 14.8004 11.2384 14.2482 11.8077C13.696 12.377 13.0298 12.6616 12.2495 12.6616C12.24 12.6616 12.2304 12.6568 12.2207 12.6471H12.1919L12.9201 15.1435L13.1915 15.9754H14.0052L13.1915 13.3039C13.9816 13.0896 14.6288 12.6516 15.1332 11.9899C15.6376 11.3281 15.8898 10.5739 15.8898 9.72711L15.8902 9.7262Z" fill="#718096"/>
  </g>
  <defs>
    <clipPath id="clip0_2285_23112">
      <rect width="16" height="16" fill="white" transform="translate(0 0.5)"/>
    </clipPath>
  </defs>
</svg>
