<svg width="17" height="17" viewBox="0 0 17 17" fill="none" xmlns="http://www.w3.org/2000/svg">
<path d="M4.04424 13.4596C4.44979 12.5041 5.39666 11.834 6.50004 11.834H10.5C11.6034 11.834 12.5503 12.5041 12.9558 13.4596M11.1667 6.83398C11.1667 8.30674 9.9728 9.50065 8.50004 9.50065C7.02728 9.50065 5.83337 8.30674 5.83337 6.83398C5.83337 5.36123 7.02728 4.16732 8.50004 4.16732C9.9728 4.16732 11.1667 5.36123 11.1667 6.83398ZM15.1667 8.50065C15.1667 12.1826 12.1819 15.1673 8.50004 15.1673C4.81814 15.1673 1.83337 12.1826 1.83337 8.50065C1.83337 4.81875 4.81814 1.83398 8.50004 1.83398C12.1819 1.83398 15.1667 4.81875 15.1667 8.50065Z" stroke="#718096" stroke-linecap="round" stroke-linejoin="round"/>
</svg>
