<svg width="17" height="16" viewBox="0 0 17 16" fill="none" xmlns="http://www.w3.org/2000/svg">
<path d="M11.1667 5.3342V3.0013C11.1667 2.44681 11.1667 2.16956 11.0499 1.99918C10.9478 1.85032 10.7898 1.74919 10.6118 1.71892C10.4082 1.68426 10.1565 1.80044 9.653 2.03281L3.73934 4.76219C3.29034 4.96942 3.06583 5.07304 2.9014 5.23374C2.75604 5.37581 2.64508 5.54923 2.577 5.74075C2.5 5.95739 2.5 6.20465 2.5 6.69917V10.0009M11.5 9.66753H11.5067M2.5 7.46753L2.5 11.8675C2.5 12.6143 2.5 12.9876 2.64532 13.2728C2.77316 13.5237 2.97713 13.7277 3.22801 13.8555C3.51323 14.0009 3.8866 14.0009 4.63333 14.0009H12.3667C13.1134 14.0009 13.4868 14.0009 13.772 13.8555C14.0229 13.7277 14.2268 13.5237 14.3547 13.2728C14.5 12.9876 14.5 12.6143 14.5 11.8675V7.46753C14.5 6.72079 14.5 6.34742 14.3547 6.06221C14.2268 5.81133 14.0229 5.60735 13.772 5.47952C13.4868 5.3342 13.1134 5.3342 12.3667 5.3342L4.63333 5.33419C3.8866 5.33419 3.51323 5.3342 3.22801 5.47952C2.97713 5.60735 2.77316 5.81132 2.64532 6.06221C2.5 6.34742 2.5 6.72079 2.5 7.46753ZM11.8333 9.66753C11.8333 9.85162 11.6841 10.0009 11.5 10.0009C11.3159 10.0009 11.1667 9.85162 11.1667 9.66753C11.1667 9.48343 11.3159 9.33419 11.5 9.33419C11.6841 9.33419 11.8333 9.48343 11.8333 9.66753Z" stroke="#718096" stroke-linecap="round" stroke-linejoin="round"/>
</svg>
