<svg width="24" height="25" viewBox="0 0 24 25" fill="none" xmlns="http://www.w3.org/2000/svg">
<path fill-rule="evenodd" clip-rule="evenodd" d="M7.33377 4.3187C8.1376 4.25455 8.90071 3.93846 9.51447 3.41542C10.9467 2.19486 13.0533 2.19486 14.4855 3.41542C15.0993 3.93846 15.8624 4.25455 16.6662 4.3187C18.5421 4.46839 20.0316 5.95794 20.1813 7.83377C20.2455 8.6376 20.5615 9.40071 21.0846 10.0145C22.3051 11.4467 22.3051 13.5533 21.0846 14.9855C20.5615 15.5993 20.2455 16.3624 20.1813 17.1662C20.0316 19.0421 18.5421 20.5316 16.6662 20.6813C15.8624 20.7455 15.0993 21.0615 14.4855 21.5846C13.0533 22.8051 10.9467 22.8051 9.51447 21.5846C8.90071 21.0615 8.1376 20.7455 7.33377 20.6813C5.45794 20.5316 3.96839 19.0421 3.8187 17.1662C3.75455 16.3624 3.43846 15.5993 2.91542 14.9855C1.69486 13.5533 1.69486 11.4467 2.91542 10.0145C3.43846 9.40071 3.75455 8.6376 3.8187 7.83377C3.96839 5.95794 5.45794 4.46839 7.33377 4.3187ZM16.2071 10.7071C16.5976 10.3166 16.5976 9.68342 16.2071 9.29289C15.8166 8.90237 15.1834 8.90237 14.7929 9.29289L11 13.0858L9.70711 11.7929C9.31658 11.4024 8.68342 11.4024 8.29289 11.7929C7.90237 12.1834 7.90237 12.8166 8.29289 13.2071L10.2929 15.2071C10.6834 15.5976 11.3166 15.5976 11.7071 15.2071L16.2071 10.7071Z" fill="#718096"/>
</svg>
