<svg xmlns="http://www.w3.org/2000/svg" width="17" height="17" viewBox="0 0 17 17" fill="none">
  <path d="M10.9021 9.07863C10.8331 9.03255 10.7358 9.00444 10.6316 9.00048C10.5274 8.99653 10.4248 9.01705 10.3464 9.05755C9.09714 9.70248 7.92289 9.70218 6.65116 9.05639C6.61204 9.03652 6.56664 9.02137 6.51756 9.01181C6.46848 9.00225 6.41668 8.99847 6.36511 9.00068C6.31355 9.00288 6.26322 9.01104 6.21702 9.02468C6.17082 9.03832 6.12963 9.05717 6.09583 9.08016C6.06202 9.10315 6.03625 9.12983 6.01998 9.15868C6.00372 9.18753 5.99728 9.21797 6.00104 9.24828C6.0048 9.27859 6.01867 9.30817 6.04188 9.33532C6.06508 9.36248 6.09716 9.38668 6.13628 9.40655C6.9154 9.80223 7.71358 10 8.50878 10C9.30398 10 10.0982 9.8018 10.8662 9.40539C10.9446 9.36484 10.9925 9.30764 10.9992 9.24637C11.0059 9.18511 10.971 9.12477 10.9021 9.07863Z" fill="white"/>
  <path d="M14.4527 6.06318C14.2775 3.24422 11.6747 1 8.49972 1C5.32476 1 2.72164 3.24422 2.54673 6.06318C2.11056 6.15098 1.71845 6.38474 1.43664 6.72496C1.15484 7.06518 1.0006 7.49102 1 7.93053V10.4484C1.00609 10.9498 1.21207 11.4286 1.57329 11.781C1.93452 12.1334 2.42186 12.331 2.92968 12.331C3.43749 12.331 3.92484 12.1334 4.28606 11.781C4.64728 11.4286 4.85327 10.9498 4.85935 10.4484V7.93053C4.85868 7.51166 4.71831 7.10466 4.45994 6.77243C4.20156 6.4402 3.83956 6.20124 3.42987 6.09246C3.59064 3.74096 5.80292 1.87114 8.50055 1.87114C11.1982 1.87114 13.4088 3.74096 13.5701 6.09246C13.1603 6.20104 12.798 6.43993 12.5395 6.77219C12.281 7.10444 12.1405 7.51154 12.1398 7.93053V10.4484C12.1404 10.8044 12.242 11.1531 12.4331 11.455C12.6242 11.7569 12.8971 11.9999 13.2209 12.1565C13.029 12.567 12.6371 13.2058 11.963 13.5222C11.7437 13.2158 11.4207 12.9969 11.0523 12.9052C10.6838 12.8135 10.2943 12.855 9.95414 13.0221C9.61398 13.1893 9.34562 13.4711 9.19759 13.8166C9.04956 14.1622 9.03162 14.5486 9.14703 14.906C9.26244 15.2634 9.50356 15.5683 9.82682 15.7655C10.1501 15.9627 10.5341 16.0391 10.9095 15.9811C11.2849 15.923 11.6268 15.7342 11.8735 15.4489C12.1202 15.1636 12.2554 14.8005 12.2546 14.4254C12.2546 14.4005 12.2521 14.3761 12.251 14.3515C13.332 13.8919 13.8773 12.8842 14.0982 12.3511C14.6047 12.3435 15.088 12.1397 15.4437 11.7835C15.7995 11.4274 15.9993 10.9475 16 10.4473V7.92944C15.9991 7.49004 15.8447 7.0644 15.5628 6.72439C15.2809 6.38438 14.8888 6.15083 14.4527 6.06318ZM3.97705 7.93053V10.4484C3.97258 10.7198 3.86026 10.9785 3.66433 11.1689C3.4684 11.3592 3.20454 11.4659 2.92968 11.4659C2.65481 11.4659 2.39096 11.3592 2.19502 11.1689C1.99909 10.9785 1.88677 10.7198 1.8823 10.4484V7.93053C1.88677 7.65918 1.99909 7.40043 2.19502 7.2101C2.39096 7.01977 2.65481 6.9131 2.92968 6.9131C3.20454 6.9131 3.4684 7.01977 3.66433 7.2101C3.86026 7.40043 3.97258 7.65918 3.97705 7.93053ZM10.6602 15.1285C10.5195 15.1285 10.382 15.0873 10.2651 15.0101C10.1481 14.933 10.0569 14.8233 10.0031 14.6951C9.94923 14.5668 9.93511 14.4256 9.96251 14.2894C9.98991 14.1532 10.0576 14.028 10.157 13.9298C10.2564 13.8315 10.3831 13.7646 10.5211 13.7375C10.659 13.7103 10.802 13.7241 10.932 13.7772C11.0619 13.8303 11.1731 13.9202 11.2513 14.0356C11.3295 14.151 11.3713 14.2868 11.3714 14.4256C11.3712 14.6118 11.2962 14.7903 11.1629 14.922C11.0295 15.0536 10.8487 15.1277 10.6602 15.1279V15.1285ZM15.1169 10.4484C15.1124 10.7198 15.0001 10.9785 14.8041 11.1689C14.6082 11.3592 14.3444 11.4659 14.0695 11.4659C13.7946 11.4659 13.5308 11.3592 13.3348 11.1689C13.1389 10.9785 13.0266 10.7198 13.0221 10.4484V7.93053C13.0266 7.65918 13.1389 7.40043 13.3348 7.2101C13.5308 7.01977 13.7946 6.9131 14.0695 6.9131C14.3444 6.9131 14.6082 7.01977 14.8041 7.2101C15.0001 7.40043 15.1124 7.65918 15.1169 7.93053V10.4484Z" fill="white"/>
  <path d="M6.37773 7C6.47781 7 6.5738 6.95019 6.64457 6.86154C6.71534 6.77288 6.7551 6.65263 6.7551 6.52725V5.4849C6.75636 5.4218 6.74753 5.35902 6.72913 5.30026C6.71073 5.24151 6.68312 5.18796 6.64794 5.14277C6.61277 5.09758 6.57073 5.06167 6.5243 5.03715C6.47787 5.01263 6.42799 5 6.37761 5C6.32722 5 6.27735 5.01263 6.23092 5.03715C6.18449 5.06167 6.14245 5.09758 6.10727 5.14277C6.0721 5.18796 6.04449 5.24151 6.02609 5.30026C6.00769 5.35902 5.99886 5.4218 6.00012 5.4849V6.52725C6.00012 6.58936 6.00989 6.65086 6.02887 6.70823C6.04785 6.76561 6.07566 6.81774 6.11073 6.86164C6.1458 6.90554 6.18743 6.94036 6.23324 6.9641C6.27905 6.98784 6.32815 7.00004 6.37773 7ZM9.99988 6.52725V5.4849C10.0011 5.4218 9.99231 5.35902 9.97391 5.30026C9.95551 5.24151 9.9279 5.18796 9.89273 5.14277C9.85755 5.09758 9.81551 5.06167 9.76908 5.03715C9.72265 5.01263 9.67278 5 9.62239 5C9.57201 5 9.52213 5.01263 9.4757 5.03715C9.42928 5.06167 9.38723 5.09758 9.35206 5.14277C9.31688 5.18796 9.28927 5.24151 9.27087 5.30026C9.25247 5.35902 9.24364 5.4218 9.2449 5.4849V6.52725C9.24737 6.65062 9.28822 6.7679 9.35875 6.85406C9.42927 6.94022 9.52388 6.98844 9.62239 6.98844C9.7209 6.98844 9.81551 6.94022 9.88603 6.85406C9.95656 6.7679 9.99741 6.65062 9.99988 6.52725Z" fill="white"/>
</svg>
