<svg xmlns="http://www.w3.org/2000/svg" width="20" height="20" viewBox="0 0 20 20" fill="none">
  <path d="M6.25 8.75H6.25833M10 8.75H10.0083M13.75 8.75H13.7583M8.25 16L9.46667 17.6222C9.6476 17.8635 9.73807 17.9841 9.84897 18.0272C9.94611 18.065 10.0539 18.065 10.151 18.0272C10.2619 17.9841 10.3524 17.8635 10.5333 17.6222L11.75 16C11.9943 15.6743 12.1164 15.5114 12.2654 15.3871C12.4641 15.2213 12.6986 15.104 12.9504 15.0446C13.1393 15 13.3429 15 13.75 15C14.9149 15 15.4973 15 15.9567 14.8097C16.5693 14.556 17.056 14.0693 17.3097 13.4567C17.5 12.9973 17.5 12.4149 17.5 11.25V6.5C17.5 5.09987 17.5 4.3998 17.2275 3.86502C16.9878 3.39462 16.6054 3.01217 16.135 2.77248C15.6002 2.5 14.9001 2.5 13.5 2.5H6.5C5.09987 2.5 4.3998 2.5 3.86502 2.77248C3.39462 3.01217 3.01217 3.39462 2.77248 3.86502C2.5 4.3998 2.5 5.09987 2.5 6.5V11.25C2.5 12.4149 2.5 12.9973 2.6903 13.4567C2.94404 14.0693 3.43072 14.556 4.04329 14.8097C4.50272 15 5.08515 15 6.25 15C6.65715 15 6.86072 15 7.04959 15.0446C7.30141 15.104 7.53593 15.2213 7.73458 15.3871C7.88357 15.5114 8.00571 15.6743 8.25 16ZM6.66667 8.75C6.66667 8.98012 6.48012 9.16667 6.25 9.16667C6.01988 9.16667 5.83333 8.98012 5.83333 8.75C5.83333 8.51988 6.01988 8.33333 6.25 8.33333C6.48012 8.33333 6.66667 8.51988 6.66667 8.75ZM10.4167 8.75C10.4167 8.98012 10.2301 9.16667 10 9.16667C9.76988 9.16667 9.58333 8.98012 9.58333 8.75C9.58333 8.51988 9.76988 8.33333 10 8.33333C10.2301 8.33333 10.4167 8.51988 10.4167 8.75ZM14.1667 8.75C14.1667 8.98012 13.9801 9.16667 13.75 9.16667C13.5199 9.16667 13.3333 8.98012 13.3333 8.75C13.3333 8.51988 13.5199 8.33333 13.75 8.33333C13.9801 8.33333 14.1667 8.51988 14.1667 8.75Z" stroke="#718096" stroke-linecap="round" stroke-linejoin="round"/>
</svg>
