<svg xmlns="http://www.w3.org/2000/svg" width="20" height="20" viewBox="0 0 20 20" fill="none">
  <g clip-path="url(#clip0_1310_4639)">
    <path d="M11.5716 8.27406L8.33067 11.515M8.45256 11.7366L11.1866 17.2224C11.4014 17.6533 11.5087 17.8688 11.647 17.9294C11.767 17.9821 11.9048 17.9752 12.0189 17.9109C12.1504 17.8368 12.2358 17.6117 12.4066 17.1614L17.8226 2.88281C17.9893 2.44335 18.0726 2.22363 18.0247 2.08206C17.9831 1.95907 17.8866 1.86251 17.7636 1.8209C17.622 1.77301 17.4023 1.85635 16.9628 2.02304L2.67926 7.44098C2.23039 7.61124 2.00596 7.69637 1.93185 7.82763C1.86748 7.94162 1.86043 8.07923 1.91281 8.1992C1.97312 8.33735 2.18767 8.44497 2.61679 8.66021L8.15479 11.4381C8.22849 11.4751 8.26534 11.4935 8.29727 11.5182C8.32559 11.5401 8.35098 11.5656 8.3728 11.5939C8.39739 11.6259 8.41578 11.6628 8.45256 11.7366Z" stroke="#718096" stroke-linecap="round" stroke-linejoin="round"/>
  </g>
  <defs>
    <clipPath id="clip0_1310_4639">
      <rect width="20" height="20" fill="white"/>
    </clipPath>
  </defs>
</svg>
