<svg width="40" height="40" viewBox="0 0 40 40" fill="none" xmlns="http://www.w3.org/2000/svg">
<g clip-path="url(#clip0_2999_13355)">
<rect width="40" height="40" rx="10" fill="white"/>
<path d="M12.2276 15.1554L8.43626 11.1678V13.6924C8.43626 14.3466 8.73957 14.6737 9.34619 14.6737V15.0483H7.12489V14.6737C7.62446 14.6737 7.87424 14.3466 7.87424 13.6924V9.82072C7.87424 9.62446 7.58283 9.52633 7 9.52633V9.13381H8.68604L12.0314 12.72V10.4273C12.0314 9.82667 11.731 9.52633 11.1304 9.52633V9.13381H13.3427V9.52633C12.8015 9.52633 12.5309 9.82667 12.5309 10.4273V15.0751L12.2276 15.1554Z" fill="#14171A"/>
<path d="M13.9332 15.0483V14.6737C14.4684 14.6737 14.7361 14.5012 14.7361 14.1563V10.1954C14.7361 9.74935 14.4476 9.52633 13.8707 9.52633V9.13381H18.9913L19.0627 10.8823L18.5185 10.9269C18.465 10.5998 18.3877 10.35 18.2866 10.1776C18.1855 9.99914 18.0635 9.87127 17.9208 9.79396C17.7781 9.7107 17.6145 9.66312 17.4302 9.65122C17.2458 9.63338 17.0406 9.62446 16.8146 9.62446C16.6184 9.62446 16.4667 9.6542 16.3597 9.71367C16.2526 9.76719 16.1991 9.84748 16.1991 9.95453V11.5246C16.1991 11.6673 16.2675 11.7387 16.4043 11.7387C16.547 11.7387 16.6778 11.7298 16.7968 11.7119C16.9157 11.6941 17.0198 11.6554 17.109 11.596C17.2042 11.5306 17.2815 11.4354 17.341 11.3105C17.4004 11.1856 17.4391 11.0161 17.4569 10.802H17.9743V13.175H17.4569C17.4391 12.9728 17.4093 12.8092 17.3677 12.6843C17.3261 12.5594 17.2666 12.4643 17.1893 12.3988C17.1179 12.3334 17.0258 12.2888 16.9128 12.265C16.7998 12.2412 16.663 12.2264 16.5024 12.2204C16.3002 12.2383 16.1991 12.3186 16.1991 12.4613V14.1295C16.1991 14.415 16.4221 14.5577 16.8681 14.5577C17.2309 14.5577 17.5194 14.5309 17.7335 14.4774C17.9535 14.4179 18.1319 14.3317 18.2687 14.2187C18.4055 14.0998 18.5155 13.9511 18.5988 13.7727C18.6821 13.5942 18.7683 13.3801 18.8575 13.1304L19.366 13.2017L19.1162 15.0483H13.9332Z" fill="#14171A"/>
<path d="M25.4084 15.0929L24.0792 11.4176L22.8927 15.1911L22.0809 15.0929L20.2343 10.0527C20.1689 9.8683 20.0737 9.73448 19.9488 9.65122C19.8299 9.56796 19.702 9.52633 19.5652 9.52633V9.13381H22.2772V9.52633C21.9977 9.52633 21.8163 9.55309 21.733 9.60662C21.6498 9.66014 21.6081 9.72854 21.6081 9.8118C21.6081 9.83559 21.6141 9.86235 21.626 9.89209C21.6438 9.92182 21.6587 9.96048 21.6706 10.0081L22.8838 13.5764L23.8562 10.6504L23.5261 9.77612C23.4964 9.69285 23.422 9.63041 23.3031 9.58878C23.1841 9.54715 23.0474 9.52633 22.8927 9.52633V9.13381H25.5779V9.52633C25.1438 9.52633 24.9267 9.62149 24.9267 9.8118C24.9267 9.87722 24.9475 9.95156 24.9891 10.0348L26.1488 13.5675L27.148 10.3471C27.1658 10.2697 27.1807 10.1984 27.1926 10.1329C27.2104 10.0616 27.2193 9.99319 27.2193 9.92777C27.2193 9.66014 26.9755 9.52633 26.4878 9.52633V9.13381H28.504V9.52633C28.1471 9.52633 27.8795 9.7999 27.7011 10.3471L26.131 15.1911L25.4084 15.0929Z" fill="#14171A"/>
<path d="M32.1757 11.0607C32.1281 10.8228 32.0686 10.6058 31.9972 10.4095C31.9259 10.2132 31.8367 10.0437 31.7296 9.90101C31.6285 9.75827 31.5096 9.64825 31.3728 9.57094C31.2419 9.49362 31.0933 9.45496 30.9267 9.45496C30.5818 9.45496 30.3142 9.52633 30.1239 9.66906C29.9335 9.80585 29.8384 9.98724 29.8384 10.2132C29.8384 10.3738 29.8711 10.5047 29.9365 10.6058C30.0019 10.7069 30.0971 10.799 30.222 10.8823C30.3469 10.9596 30.4985 11.034 30.6769 11.1053C30.8613 11.1707 31.0665 11.2481 31.2925 11.3373C31.5482 11.4384 31.7831 11.5395 31.9972 11.6406C32.2113 11.7417 32.3927 11.8636 32.5414 12.0063C32.696 12.1491 32.815 12.3215 32.8982 12.5237C32.9815 12.7259 33.0231 12.9817 33.0231 13.2909C33.0231 13.5883 32.9726 13.8529 32.8715 14.0849C32.7763 14.3168 32.6366 14.5161 32.4522 14.6826C32.2738 14.8432 32.0567 14.9651 31.801 15.0483C31.5512 15.1376 31.2746 15.1822 30.9713 15.1822C30.7513 15.1822 30.5372 15.1554 30.329 15.1019C30.1268 15.0483 29.9484 14.9532 29.7938 14.8164C29.6748 14.8997 29.5499 14.974 29.4191 15.0394C29.2942 15.1048 29.1634 15.1584 29.0266 15.2C28.9552 14.9918 28.9047 14.7837 28.8749 14.5755C28.8452 14.3614 28.8303 14.1414 28.8303 13.9154C28.8303 13.7608 28.8333 13.6091 28.8392 13.4604C28.8511 13.3118 28.869 13.1601 28.8928 13.0055H29.4726C29.4726 13.2017 29.4964 13.401 29.544 13.6032C29.5975 13.8054 29.6808 13.9927 29.7938 14.1652C29.9068 14.3317 30.0525 14.4685 30.2309 14.5755C30.4153 14.6826 30.6353 14.7361 30.891 14.7361C31.123 14.7361 31.3163 14.7123 31.4709 14.6647C31.6315 14.6112 31.7593 14.5399 31.8545 14.4506C31.9556 14.3614 32.027 14.2603 32.0686 14.1473C32.1162 14.0284 32.14 13.9035 32.14 13.7727C32.14 13.5645 32.0864 13.392 31.9794 13.2553C31.8723 13.1125 31.6969 12.9995 31.4531 12.9163C31.0903 12.7914 30.7572 12.6694 30.4539 12.5505C30.1506 12.4256 29.886 12.2799 29.66 12.1134C29.4399 11.9409 29.2675 11.7387 29.1426 11.5068C29.0177 11.2748 28.9552 10.9894 28.9552 10.6504C28.9552 10.3946 29.0028 10.1657 29.098 9.96345C29.1991 9.7553 29.3329 9.57986 29.4994 9.43712C29.6659 9.29439 29.8592 9.18734 30.0793 9.11597C30.3052 9.03866 30.5431 9 30.7929 9C31.013 9 31.2241 9.04163 31.4263 9.12489C31.6285 9.20221 31.798 9.33602 31.9348 9.52633C32.0002 9.40739 32.0954 9.30926 32.2203 9.23194C32.3451 9.15463 32.47 9.09813 32.5949 9.06245C32.6841 9.35386 32.7377 9.68096 32.7555 10.0437C32.7793 10.4006 32.7912 10.7396 32.7912 11.0607H32.1757Z" fill="#14171A"/>
<path fill-rule="evenodd" clip-rule="evenodd" d="M7.5 21C7.22386 21 7 21.2239 7 21.5C7 21.7761 7.22386 22 7.5 22H24.5C24.7761 22 25 21.7761 25 21.5C25 21.2239 24.7761 21 24.5 21H7.5ZM27.5 21C27.2239 21 27 21.2239 27 21.5C27 21.7761 27.2239 22 27.5 22H32.5C32.7761 22 33 21.7761 33 21.5C33 21.2239 32.7761 21 32.5 21H27.5ZM15 26.5C15 26.2239 15.2239 26 15.5 26H32.5C32.7761 26 33 26.2239 33 26.5C33 26.7761 32.7761 27 32.5 27H15.5C15.2239 27 15 26.7761 15 26.5ZM7.5 26C7.22386 26 7 26.2239 7 26.5C7 26.7761 7.22386 27 7.5 27H12.5C12.7761 27 13 26.7761 13 26.5C13 26.2239 12.7761 26 12.5 26H7.5ZM7 31.5C7 31.2239 7.22386 31 7.5 31H24.5C24.7761 31 25 31.2239 25 31.5C25 31.7761 24.7761 32 24.5 32H7.5C7.22386 32 7 31.7761 7 31.5ZM27.5 31C27.2239 31 27 31.2239 27 31.5C27 31.7761 27.2239 32 27.5 32H32.5C32.7761 32 33 31.7761 33 31.5C33 31.2239 32.7761 31 32.5 31H27.5Z" fill="#14171A"/>
</g>
<rect x="0.5" y="0.5" width="39" height="39" rx="9.5" stroke="#39424C"/>
<defs>
<clipPath id="clip0_2999_13355">
<rect width="40" height="40" rx="10" fill="white"/>
</clipPath>
</defs>
</svg>
