<svg xmlns="http://www.w3.org/2000/svg" width="136" height="136" fill="none" viewBox="0 0 136 136"
    class="sc-jTzLTM ccMzdV">
    <path fill="#fff" fill-rule="evenodd"
        d="M63.441.066c-8.013.587-15.057 2.293-22.503 5.45-1.299.55-5.796 2.82-7.043 3.553-3.133 1.843-7.133 4.685-9.85 7-2.053 1.748-6.58 6.298-8.163 8.203-3.237 3.897-6.38 8.656-8.462 12.816-.35.698-.688 1.289-.753 1.313-.064.025-.117.115-.117.201 0 .087-.443 1.182-.985 2.434-1.086 2.513-2.485 6.521-3.213 9.205C.492 57.104-.36 65.638.142 72.332c.95 12.625 4.721 23.67 11.535 33.776 4.948 7.339 11.385 13.708 18.978 18.777 8.601 5.741 18.848 9.472 29.509 10.745 2.92.348 9.59.485 12.759.261a67.523 67.523 0 0 0 35.39-13.022c13.601-10.019 23.03-24.763 26.375-41.242.998-4.915 1.316-8.238 1.312-13.7-.003-3.986-.043-4.805-.361-7.53-1.443-12.331-5.882-23.537-13.173-33.254-4.623-6.162-10.842-12.011-17.048-16.036-3.627-2.352-5.44-3.36-8.99-4.993A67.4 67.4 0 0 0 73.256.116c-1.686-.126-8.318-.16-9.816-.05Zm10.475 11.456c5.092.544 10.423 1.87 15.2 3.78l1.568.627v1.226c.001 4.775-3.154 9.028-7.879 10.622l-1.268.428-15.091.085c-14.334.082-16.925.149-20.366.527-7.814.86-13.949 2.05-20.687 4.012-.984.287-1.875.521-1.979.521-.251 0 .098-.497 1.547-2.202 2.933-3.45 7.846-7.88 10.97-9.89a8.85 8.85 0 0 0 .667-.457c.037-.039.548-.378 1.135-.754a56.25 56.25 0 0 1 13.422-6.256c4.391-1.38 8.445-2.1 14.222-2.525 1.344-.098 6.729.063 8.539.256Zm28.385 11.293c2.844 2.167 8.149 7.165 8.149 7.676 0 .645-2.161 4.486-3.707 6.59-5.307 7.221-13.256 12.096-22.001 13.492-2.242.359-3.776.396-16.56.404-15.986.009-18.203.095-24.105.93C33.15 53.451 22.8 56.903 13.183 62.211c-.796.439-1.481.763-1.524.72-.142-.142.379-3.997.836-6.188.487-2.33 1.296-5.32 1.9-7.024l.373-1.052 1.333-.592c9.05-4.02 19.91-6.897 29.845-7.907 5.355-.544 6.069-.566 20.834-.624 8.619-.034 15.069-.113 15.708-.192 1.061-.131 3.079-.607 4.308-1.017.34-.112 1.398-.582 2.353-1.043 5.623-2.713 9.832-7.579 11.756-13.588.342-1.066.55-1.533.65-1.458l.746.568Zm15.932 18.712c1.005 1.728 2.677 5.768 3.688 8.911.826 2.568.886 2.876.635 3.258-.35.535-4.644 4.88-5.913 5.984-6.181 5.377-13.462 9.407-21.07 11.66-3.775 1.12-7.256 1.77-11.753 2.199-.728.07-7.609.134-15.292.144-16.573.02-17.58.064-23.25 1-10.053 1.66-20.37 6.057-28.696 12.231-.699.519-1.356.949-1.46.957-.222.016-.671-1.226-1.566-4.325-.641-2.22-1.569-6.652-1.504-7.181.032-.253.445-.581 1.91-1.517 8.568-5.475 17.875-9.217 27.644-11.113 2.718-.527 3.149-.592 6.344-.951 3.934-.443 5.242-.475 21.234-.52 14.674-.04 14.84-.047 18.763-.809 6.102-1.185 12.054-3.696 17.102-7.214 4.642-3.235 9.256-7.945 12.06-12.309.34-.53.658-.965.707-.968.048-.002.235.251.417.563Zm6.505 27.501c-.002 3.727-.723 8.938-1.82 13.148-.316 1.214-.402 1.396-.77 1.618a283.8 283.8 0 0 0-1.348.825c-9.536 5.87-20.636 9.824-31.086 11.072-1.266.151-2.812.345-3.436.43-.77.104-6.286.185-17.161.251-8.814.053-16.206.13-16.426.17-.22.04-.972.143-1.67.228-7.963.965-16.268 4.53-22.597 9.698-.567.463-1.089.841-1.16.841-.386 0-4.394-4.893-6.125-7.476-.744-1.11-.907-1.44-.786-1.59.265-.325 3.567-2.814 4.96-3.739 4.907-3.255 10.146-5.7 15.559-7.26 3.154-.909 5.47-1.377 9.47-1.916 1.803-.243 4.425-.288 21.312-.37 12.35-.06 13.342-.099 17.428-.688 9.735-1.403 19.111-4.984 27.578-10.533 1.69-1.108 4.963-3.57 6.543-4.924.735-.628 1.381-1.145 1.436-1.148.055-.003.1.61.099 1.363Zm-10.415 31.698c0 .129-1.735 2.394-2.995 3.909-1.361 1.637-5.256 5.528-6.878 6.87-9.056 7.492-19.437 11.843-31.126 13.045-2.398.246-8.791.207-11.138-.07-5.935-.698-11.11-2.03-16.24-4.18-1.205-.506-4.427-2.083-5.458-2.672-2.12-1.212-4.426-2.687-4.422-2.829.008-.273 3.775-2.655 5.752-3.635 3.036-1.507 5.709-2.366 9.587-3.082 1.51-.279 1.982-.289 17.311-.382 8.667-.052 16.03-.13 16.36-.173.33-.044 1.412-.145 2.404-.225 3.81-.31 9.09-1.193 13.112-2.194 2.107-.524 5.659-1.501 6.052-1.665a79.681 79.681 0 0 1 2.07-.726c.991-.339 2.614-.94 3.605-1.337 1.923-.77 2.004-.796 2.004-.654Z"
        clip-rule="evenodd"></path>
</svg>